G04 #@! TF.GenerationSoftware,KiCad,Pcbnew,10.0.4*
G04 #@! TF.CreationDate,2026-08-11T20:57:54+10:00*
G04 #@! TF.ProjectId,DW1000,44573130-3030-42e6-9b69-6361645f7063,rev?*
G04 #@! TF.SameCoordinates,Original*
G04 #@! TF.FileFunction,Copper,L4,Bot*
G04 #@! TF.FilePolarity,Positive*
%FSLAX46Y46*%
G04 Gerber Fmt 4.6, Leading zero omitted, Abs format (unit mm)*
G04 Created by KiCad (PCBNEW 10.0.4) date 2026-08-11 20:57:54*
%MOMM*%
%LPD*%
G01*
G04 APERTURE LIST*
G04 Aperture macros list*
%AMRoundRect*
0 Rectangle with rounded corners*
0 $1 Rounding radius*
0 $2 $3 $4 $5 $6 $7 $8 $9 X,Y pos of 4 corners*
0 Add a 4 corners polygon primitive as box body*
4,1,4,$2,$3,$4,$5,$6,$7,$8,$9,$2,$3,0*
0 Add four circle primitives for the rounded corners*
1,1,$1+$1,$2,$3*
1,1,$1+$1,$4,$5*
1,1,$1+$1,$6,$7*
1,1,$1+$1,$8,$9*
0 Add four rect primitives between the rounded corners*
20,1,$1+$1,$2,$3,$4,$5,0*
20,1,$1+$1,$4,$5,$6,$7,0*
20,1,$1+$1,$6,$7,$8,$9,0*
20,1,$1+$1,$8,$9,$2,$3,0*%
G04 Aperture macros list end*
G04 #@! TA.AperFunction,ComponentPad*
%ADD10R,1.398000X1.398000*%
G04 #@! TD*
G04 #@! TA.AperFunction,ComponentPad*
%ADD11C,1.398000*%
G04 #@! TD*
G04 #@! TA.AperFunction,SMDPad,CuDef*
%ADD12RoundRect,0.140000X0.170000X-0.140000X0.170000X0.140000X-0.170000X0.140000X-0.170000X-0.140000X0*%
G04 #@! TD*
G04 #@! TA.AperFunction,SMDPad,CuDef*
%ADD13RoundRect,0.140000X-0.170000X0.140000X-0.170000X-0.140000X0.170000X-0.140000X0.170000X0.140000X0*%
G04 #@! TD*
G04 #@! TA.AperFunction,SMDPad,CuDef*
%ADD14RoundRect,0.140000X0.140000X0.170000X-0.140000X0.170000X-0.140000X-0.170000X0.140000X-0.170000X0*%
G04 #@! TD*
G04 #@! TA.AperFunction,SMDPad,CuDef*
%ADD15RoundRect,0.140000X-0.140000X-0.170000X0.140000X-0.170000X0.140000X0.170000X-0.140000X0.170000X0*%
G04 #@! TD*
G04 #@! TA.AperFunction,SMDPad,CuDef*
%ADD16RoundRect,0.135000X-0.185000X0.135000X-0.185000X-0.135000X0.185000X-0.135000X0.185000X0.135000X0*%
G04 #@! TD*
G04 #@! TA.AperFunction,ViaPad*
%ADD17C,0.600000*%
G04 #@! TD*
G04 #@! TA.AperFunction,ViaPad*
%ADD18C,0.650000*%
G04 #@! TD*
G04 #@! TA.AperFunction,Conductor*
%ADD19C,0.300000*%
G04 #@! TD*
G04 #@! TA.AperFunction,Conductor*
%ADD20C,0.200000*%
G04 #@! TD*
G04 #@! TA.AperFunction,Conductor*
%ADD21C,0.350000*%
G04 #@! TD*
G04 #@! TA.AperFunction,Conductor*
%ADD22C,0.450000*%
G04 #@! TD*
G04 #@! TA.AperFunction,Conductor*
%ADD23C,0.500000*%
G04 #@! TD*
G04 #@! TA.AperFunction,Conductor*
%ADD24C,0.600000*%
G04 #@! TD*
G04 #@! TA.AperFunction,Conductor*
%ADD25C,0.400000*%
G04 #@! TD*
G04 #@! TA.AperFunction,Conductor*
%ADD26C,0.370000*%
G04 #@! TD*
G04 APERTURE END LIST*
D10*
X132525000Y-150115000D03*
D11*
X132525000Y-152655000D03*
X132525000Y-155195000D03*
X132525000Y-157735000D03*
X132525000Y-160275000D03*
D10*
X143795000Y-148675000D03*
D11*
X146335000Y-148675000D03*
X148875000Y-148675000D03*
X151415000Y-148675000D03*
X153955000Y-148675000D03*
D10*
X154200000Y-152270000D03*
D11*
X154200000Y-154810000D03*
X154200000Y-157350000D03*
X154200000Y-159890000D03*
X154200000Y-162430000D03*
D12*
X148550000Y-162825000D03*
X148550000Y-161865000D03*
X143275000Y-151455000D03*
X143275000Y-150495000D03*
D13*
X152275000Y-157795000D03*
X152275000Y-158755000D03*
D12*
X138600000Y-158300000D03*
X138600000Y-157340000D03*
D14*
X141605000Y-155100000D03*
X140645000Y-155100000D03*
D15*
X146325000Y-150625000D03*
X147285000Y-150625000D03*
D13*
X150625000Y-159875000D03*
X150625000Y-160835000D03*
X142800000Y-158740000D03*
X142800000Y-159700000D03*
D14*
X145325000Y-150625000D03*
X144365000Y-150625000D03*
D12*
X142275000Y-151455000D03*
X142275000Y-150495000D03*
D15*
X139595000Y-156750000D03*
X140555000Y-156750000D03*
D13*
X148525000Y-159875000D03*
X148525000Y-160835000D03*
X149575000Y-159875000D03*
X149575000Y-160835000D03*
D15*
X151165000Y-156775000D03*
X152125000Y-156775000D03*
X146550000Y-161800000D03*
X147510000Y-161800000D03*
D12*
X149625000Y-162825000D03*
X149625000Y-161865000D03*
D13*
X151225000Y-157795000D03*
X151225000Y-158755000D03*
D15*
X151225000Y-155525000D03*
X152185000Y-155525000D03*
D16*
X139575000Y-154705000D03*
X139575000Y-155725000D03*
D15*
X146540000Y-160690000D03*
X147500000Y-160690000D03*
D17*
X147025000Y-170225000D03*
D18*
X145225000Y-157325000D03*
D17*
X148425000Y-165000000D03*
X145675000Y-168150000D03*
X138550000Y-156350000D03*
X137550000Y-152854755D03*
X144125000Y-170125000D03*
X148525000Y-168125000D03*
X150825000Y-154575000D03*
X149500000Y-169500000D03*
X147500000Y-157004755D03*
D18*
X146675000Y-154975000D03*
D17*
X137850000Y-159375000D03*
X139650000Y-166550000D03*
X146075000Y-170175000D03*
X144650000Y-168175000D03*
X145550000Y-169425000D03*
X149475000Y-168150000D03*
X152400000Y-164375000D03*
X137225000Y-162100000D03*
X146625000Y-168150000D03*
X148925000Y-166975000D03*
D18*
X146675000Y-156375000D03*
D17*
X149050000Y-170225000D03*
D18*
X147675000Y-154975000D03*
D17*
X148025000Y-170250000D03*
X143550000Y-169475000D03*
X132500000Y-157004755D03*
D18*
X144275000Y-154975000D03*
D17*
X144575000Y-169425000D03*
X143025000Y-170175000D03*
X136850000Y-167800000D03*
D18*
X144275000Y-156375000D03*
D17*
X148550000Y-169500000D03*
D18*
X147675000Y-156375000D03*
D17*
X145050000Y-170150000D03*
D18*
X145275000Y-154975000D03*
X145275000Y-153975000D03*
D17*
X147575000Y-169450000D03*
X142000000Y-161440000D03*
X147600000Y-168150000D03*
X146525000Y-169450000D03*
X139650000Y-167875000D03*
X150000000Y-152125000D03*
X141600000Y-149600000D03*
D18*
X146675000Y-157375000D03*
D17*
X150750000Y-164325000D03*
X151775000Y-162425000D03*
D18*
X145275000Y-156375000D03*
D17*
X143800000Y-168175000D03*
X142950000Y-165200000D03*
D18*
X146675000Y-153975000D03*
D17*
X149848000Y-159095000D03*
X145375000Y-151475000D03*
X139950000Y-150300000D03*
X144198000Y-151475000D03*
X135700000Y-152479755D03*
X146400000Y-159850000D03*
X150275000Y-156738000D03*
X150275000Y-157875000D03*
X142850000Y-161600000D03*
X141475000Y-157925000D03*
X141275000Y-156025000D03*
X141650000Y-156800000D03*
X150225000Y-155475000D03*
X146325000Y-151455000D03*
D19*
X151235000Y-154575000D02*
X152185000Y-155525000D01*
X150825000Y-154575000D02*
X151235000Y-154575000D01*
D20*
X152005000Y-150625000D02*
X153955000Y-148675000D01*
D21*
X143275000Y-150495000D02*
X144235000Y-150495000D01*
X142275000Y-150275000D02*
X142275000Y-150495000D01*
D20*
X138550000Y-156350000D02*
X138550000Y-157290000D01*
D21*
X144235000Y-150495000D02*
X144365000Y-150625000D01*
D19*
X152125000Y-156775000D02*
X152200000Y-156700000D01*
D20*
X138550000Y-157290000D02*
X138600000Y-157340000D01*
X147285000Y-150625000D02*
X152005000Y-150625000D01*
D21*
X142000000Y-161440000D02*
X142000000Y-160500000D01*
X141600000Y-149600000D02*
X142275000Y-150275000D01*
D19*
X152200000Y-156700000D02*
X152200000Y-155540000D01*
X152200000Y-155540000D02*
X152185000Y-155525000D01*
D21*
X142275000Y-150495000D02*
X143275000Y-150495000D01*
X142000000Y-160500000D02*
X142800000Y-159700000D01*
D22*
X149425000Y-155675000D02*
X145375000Y-151625000D01*
D23*
X145375000Y-151625000D02*
X145375000Y-151475000D01*
D20*
X149689032Y-159095000D02*
X149675000Y-159080968D01*
D19*
X145375000Y-151475000D02*
X145375000Y-150675000D01*
D23*
X149660968Y-159095000D02*
X149848000Y-159095000D01*
X149425000Y-158859032D02*
X149660968Y-159095000D01*
D20*
X145375000Y-150675000D02*
X145325000Y-150625000D01*
D22*
X149425000Y-156150000D02*
X149425000Y-155675000D01*
D20*
X149848000Y-159095000D02*
X149689032Y-159095000D01*
D23*
X149425000Y-156150000D02*
X149425000Y-158859032D01*
D19*
X150325000Y-157825000D02*
X151195000Y-157825000D01*
D24*
X135700000Y-152479755D02*
X135700000Y-158975000D01*
D20*
X139950000Y-150300000D02*
X140100000Y-150300000D01*
D23*
X140050000Y-150300000D02*
X141205000Y-151455000D01*
D22*
X147325000Y-162825000D02*
X148550000Y-162825000D01*
D20*
X151165000Y-157735000D02*
X151225000Y-157795000D01*
D22*
X146550000Y-162050000D02*
X147325000Y-162825000D01*
D25*
X150355000Y-157795000D02*
X150275000Y-157875000D01*
D20*
X144198000Y-151475000D02*
X144148000Y-151525000D01*
D23*
X150275000Y-156738000D02*
X150275000Y-157875000D01*
D26*
X146540000Y-160690000D02*
X146540000Y-161790000D01*
X146540000Y-161790000D02*
X146550000Y-161800000D01*
D22*
X148550000Y-162825000D02*
X149625000Y-162825000D01*
D20*
X144148000Y-151525000D02*
X144025000Y-151525000D01*
D25*
X146400000Y-159850000D02*
X148500000Y-159850000D01*
D24*
X141975000Y-162475000D02*
X142850000Y-161600000D01*
D20*
X139950000Y-150300000D02*
X140050000Y-150300000D01*
D23*
X144198000Y-151475000D02*
X144178000Y-151455000D01*
D19*
X150275000Y-157875000D02*
X150375000Y-157875000D01*
D24*
X139200000Y-162475000D02*
X141975000Y-162475000D01*
X143950000Y-161600000D02*
X142850000Y-161600000D01*
D23*
X141205000Y-151455000D02*
X142275000Y-151455000D01*
X144178000Y-151455000D02*
X143175000Y-151455000D01*
D19*
X150500000Y-158000000D02*
X150500000Y-159750000D01*
D25*
X149575000Y-159875000D02*
X150625000Y-159875000D01*
D19*
X150275000Y-156738000D02*
X151128000Y-156738000D01*
D23*
X142275000Y-151455000D02*
X143275000Y-151455000D01*
D25*
X146400000Y-159850000D02*
X146400000Y-160550000D01*
X150625000Y-159875000D02*
X150500000Y-159750000D01*
D24*
X146400000Y-159850000D02*
X145700000Y-159850000D01*
D19*
X151195000Y-157825000D02*
X151225000Y-157795000D01*
D25*
X148525000Y-159875000D02*
X149575000Y-159875000D01*
D24*
X145700000Y-159850000D02*
X143950000Y-161600000D01*
D23*
X151128000Y-156738000D02*
X151165000Y-156775000D01*
D22*
X146550000Y-161800000D02*
X146550000Y-162050000D01*
D25*
X150275000Y-157875000D02*
X150325000Y-157825000D01*
X148500000Y-159850000D02*
X148525000Y-159875000D01*
D19*
X150375000Y-157875000D02*
X150500000Y-158000000D01*
X151225000Y-157795000D02*
X152275000Y-157795000D01*
D24*
X135700000Y-158975000D02*
X139200000Y-162475000D01*
D21*
X142270000Y-158745000D02*
X142925000Y-158745000D01*
X141475000Y-157950000D02*
X142270000Y-158745000D01*
D20*
X141475000Y-157925000D02*
X141475000Y-157950000D01*
X141050000Y-155800000D02*
X141275000Y-156025000D01*
X139575000Y-155725000D02*
X139650000Y-155800000D01*
X139575000Y-156730000D02*
X139595000Y-156750000D01*
X139650000Y-155800000D02*
X141050000Y-155800000D01*
X141275000Y-155430000D02*
X141605000Y-155100000D01*
X139575000Y-155725000D02*
X139575000Y-156730000D01*
X141275000Y-156025000D02*
X141275000Y-155430000D01*
X140560000Y-156800000D02*
X140510000Y-156750000D01*
X141650000Y-156800000D02*
X140560000Y-156800000D01*
X140555000Y-156750000D02*
X139005000Y-158300000D01*
X139005000Y-158300000D02*
X138600000Y-158300000D01*
D23*
X146730000Y-151455000D02*
X150195000Y-154920000D01*
D20*
X150275000Y-155525000D02*
X150225000Y-155475000D01*
D19*
X146325000Y-151455000D02*
X146325000Y-150625000D01*
D21*
X151225000Y-155525000D02*
X150275000Y-155525000D01*
D23*
X146325000Y-151455000D02*
X146730000Y-151455000D01*
X150195000Y-154920000D02*
X150195000Y-155475000D01*
D20*
X139575000Y-154705000D02*
X140250000Y-154705000D01*
X140250000Y-154705000D02*
X140645000Y-155100000D01*
G04 #@! TA.AperFunction,Conductor*
G36*
X151809427Y-158328024D02*
G01*
X151824301Y-158337582D01*
X151867511Y-158369929D01*
X151999665Y-158419219D01*
X152058085Y-158425500D01*
X152491914Y-158425499D01*
X152550335Y-158419219D01*
X152682489Y-158369929D01*
X152701691Y-158355553D01*
X152767153Y-158331138D01*
X152835426Y-158345989D01*
X152884832Y-158395394D01*
X152900000Y-158454822D01*
X152900000Y-160975000D01*
X154870840Y-160975000D01*
X154937879Y-160994685D01*
X154983634Y-161047489D01*
X154994840Y-161099028D01*
X154994286Y-163576028D01*
X154974586Y-163643063D01*
X154921772Y-163688806D01*
X154870286Y-163700000D01*
X150449000Y-163700000D01*
X150381961Y-163680315D01*
X150336206Y-163627511D01*
X150325000Y-163576000D01*
X150325000Y-162375000D01*
X150237169Y-162375000D01*
X150170130Y-162355315D01*
X150149492Y-162338685D01*
X150145405Y-162334598D01*
X150032492Y-162250073D01*
X150032490Y-162250072D01*
X150032489Y-162250071D01*
X150032487Y-162250070D01*
X150032485Y-162250069D01*
X149900338Y-162200782D01*
X149900337Y-162200781D01*
X149900335Y-162200781D01*
X149841915Y-162194500D01*
X149841905Y-162194500D01*
X149408087Y-162194500D01*
X149408081Y-162194501D01*
X149349664Y-162200780D01*
X149217514Y-162250069D01*
X149217507Y-162250073D01*
X149161810Y-162291768D01*
X149096346Y-162316185D01*
X149028073Y-162301333D01*
X149013190Y-162291768D01*
X148957492Y-162250073D01*
X148957490Y-162250072D01*
X148957489Y-162250071D01*
X148957487Y-162250070D01*
X148957485Y-162250069D01*
X148825338Y-162200782D01*
X148825337Y-162200781D01*
X148825335Y-162200781D01*
X148766915Y-162194500D01*
X148766905Y-162194500D01*
X148333087Y-162194500D01*
X148333081Y-162194501D01*
X148274664Y-162200780D01*
X148142514Y-162250069D01*
X148142507Y-162250073D01*
X148029594Y-162334598D01*
X148025508Y-162338685D01*
X147964183Y-162372167D01*
X147937831Y-162375000D01*
X147386688Y-162375000D01*
X147357248Y-162366355D01*
X147327261Y-162359832D01*
X147322245Y-162356077D01*
X147319649Y-162355315D01*
X147299011Y-162338685D01*
X147192926Y-162232599D01*
X147159443Y-162171278D01*
X147164426Y-162101589D01*
X147174219Y-162075335D01*
X147180500Y-162016915D01*
X147180499Y-161583086D01*
X147174219Y-161524665D01*
X147124929Y-161392511D01*
X147065130Y-161312629D01*
X147040714Y-161247166D01*
X147055566Y-161178893D01*
X147065126Y-161164018D01*
X147114929Y-161097489D01*
X147164219Y-160965335D01*
X147170500Y-160906915D01*
X147170499Y-160473086D01*
X147166421Y-160435158D01*
X147163960Y-160412253D01*
X147176367Y-160343494D01*
X147223978Y-160292357D01*
X147287250Y-160275000D01*
X147874852Y-160275000D01*
X147941891Y-160294685D01*
X147974118Y-160324689D01*
X148004595Y-160365401D01*
X148004596Y-160365402D01*
X148004597Y-160365403D01*
X148117511Y-160449929D01*
X148249665Y-160499219D01*
X148308085Y-160505500D01*
X148741914Y-160505499D01*
X148800335Y-160499219D01*
X148932489Y-160449929D01*
X148975691Y-160417587D01*
X149041154Y-160393172D01*
X149109427Y-160408024D01*
X149124301Y-160417582D01*
X149167511Y-160449929D01*
X149299665Y-160499219D01*
X149358085Y-160505500D01*
X149791914Y-160505499D01*
X149850335Y-160499219D01*
X149982489Y-160449929D01*
X150025691Y-160417587D01*
X150091154Y-160393172D01*
X150159427Y-160408024D01*
X150174301Y-160417582D01*
X150217511Y-160449929D01*
X150349665Y-160499219D01*
X150408085Y-160505500D01*
X150841914Y-160505499D01*
X150900335Y-160499219D01*
X151032489Y-160449929D01*
X151145403Y-160365403D01*
X151229929Y-160252489D01*
X151279219Y-160120335D01*
X151285500Y-160061915D01*
X151285499Y-159688086D01*
X151279219Y-159629665D01*
X151262139Y-159583872D01*
X151229930Y-159497514D01*
X151229929Y-159497511D01*
X151145403Y-159384597D01*
X151032489Y-159300071D01*
X151032487Y-159300070D01*
X151032485Y-159300069D01*
X150900334Y-159250780D01*
X150900335Y-159250780D01*
X150861245Y-159246578D01*
X150796694Y-159219840D01*
X150756845Y-159162448D01*
X150750500Y-159123289D01*
X150750500Y-158523528D01*
X150770185Y-158456489D01*
X150822989Y-158410734D01*
X150892147Y-158400790D01*
X150917832Y-158407346D01*
X150949665Y-158419219D01*
X151008085Y-158425500D01*
X151441914Y-158425499D01*
X151500335Y-158419219D01*
X151632489Y-158369929D01*
X151675691Y-158337587D01*
X151741154Y-158313172D01*
X151809427Y-158328024D01*
G37*
G04 #@! TD.AperFunction*
M02*
