M48
; DRILL file KiCad 10.0.4 date 2026-08-11T20:56:05
; FORMAT={-:-/ absolute / metric / decimal}
; #@! TF.CreationDate,2026-08-11T20:56:05+10:00
; #@! TF.GenerationSoftware,Kicad,Pcbnew,10.0.4
; #@! TF.FileFunction,Plated,1,4,PTH
FMAT,2
METRIC
; #@! TA.AperFunction,Plated,PTH,ViaDrill
T1C0.300
; #@! TA.AperFunction,Plated,PTH,ComponentDrill
T2C0.890
%
G90
G05
T1
X132.5Y-157.005
X135.7Y-152.48
X136.85Y-167.8
X137.225Y-162.1
X137.55Y-152.855
X137.85Y-159.375
X138.55Y-156.35
X139.65Y-166.55
X139.65Y-167.875
X139.95Y-150.3
X141.275Y-156.025
X141.475Y-157.925
X141.6Y-149.6
X141.65Y-156.8
X142.0Y-161.44
X142.85Y-161.6
X142.95Y-165.2
X143.025Y-170.175
X143.55Y-169.475
X143.8Y-168.175
X144.125Y-170.125
X144.198Y-151.475
X144.275Y-154.975
X144.275Y-156.375
X144.575Y-169.425
X144.65Y-168.175
X145.05Y-170.15
X145.225Y-157.325
X145.275Y-153.975
X145.275Y-154.975
X145.275Y-156.375
X145.375Y-151.475
X145.55Y-169.425
X145.675Y-168.15
X146.075Y-170.175
X146.325Y-151.455
X146.4Y-159.85
X146.525Y-169.45
X146.625Y-168.15
X146.675Y-153.975
X146.675Y-154.975
X146.675Y-156.375
X146.675Y-157.375
X147.025Y-170.225
X147.5Y-157.005
X147.575Y-169.45
X147.6Y-168.15
X147.675Y-154.975
X147.675Y-156.375
X148.025Y-170.25
X148.425Y-165.0
X148.525Y-168.125
X148.55Y-169.5
X148.925Y-166.975
X149.05Y-170.225
X149.475Y-168.15
X149.5Y-169.5
X149.848Y-159.095
X150.0Y-152.125
X150.225Y-155.475
X150.275Y-156.738
X150.275Y-157.875
X150.75Y-164.325
X150.825Y-154.575
X151.775Y-162.425
X152.4Y-164.375
T2
X132.525Y-150.115
X132.525Y-152.655
X132.525Y-155.195
X132.525Y-157.735
X132.525Y-160.275
X143.795Y-148.675
X146.335Y-148.675
X148.875Y-148.675
X151.415Y-148.675
X153.955Y-148.675
X154.2Y-152.27
X154.2Y-154.81
X154.2Y-157.35
X154.2Y-159.89
X154.2Y-162.43
M30
