G04 #@! TF.GenerationSoftware,KiCad,Pcbnew,10.0.4*
G04 #@! TF.CreationDate,2026-08-11T20:57:55+10:00*
G04 #@! TF.ProjectId,DW1000,44573130-3030-42e6-9b69-6361645f7063,rev?*
G04 #@! TF.SameCoordinates,Original*
G04 #@! TF.FileFunction,Legend,Top*
G04 #@! TF.FilePolarity,Positive*
%FSLAX46Y46*%
G04 Gerber Fmt 4.6, Leading zero omitted, Abs format (unit mm)*
G04 Created by KiCad (PCBNEW 10.0.4) date 2026-08-11 20:57:55*
%MOMM*%
%LPD*%
G01*
G04 APERTURE LIST*
%ADD10C,0.150000*%
%ADD11C,0.120000*%
%ADD12C,0.127000*%
%ADD13C,0.200000*%
%ADD14C,0.152400*%
%ADD15C,0.250000*%
G04 APERTURE END LIST*
D10*
X141486104Y-151564285D02*
X141524200Y-151602381D01*
X141524200Y-151602381D02*
X141562295Y-151716666D01*
X141562295Y-151716666D02*
X141562295Y-151792857D01*
X141562295Y-151792857D02*
X141524200Y-151907143D01*
X141524200Y-151907143D02*
X141448009Y-151983333D01*
X141448009Y-151983333D02*
X141371819Y-152021428D01*
X141371819Y-152021428D02*
X141219438Y-152059524D01*
X141219438Y-152059524D02*
X141105152Y-152059524D01*
X141105152Y-152059524D02*
X140952771Y-152021428D01*
X140952771Y-152021428D02*
X140876580Y-151983333D01*
X140876580Y-151983333D02*
X140800390Y-151907143D01*
X140800390Y-151907143D02*
X140762295Y-151792857D01*
X140762295Y-151792857D02*
X140762295Y-151716666D01*
X140762295Y-151716666D02*
X140800390Y-151602381D01*
X140800390Y-151602381D02*
X140838485Y-151564285D01*
X140762295Y-151297619D02*
X140762295Y-150802381D01*
X140762295Y-150802381D02*
X141067057Y-151069047D01*
X141067057Y-151069047D02*
X141067057Y-150954762D01*
X141067057Y-150954762D02*
X141105152Y-150878571D01*
X141105152Y-150878571D02*
X141143247Y-150840476D01*
X141143247Y-150840476D02*
X141219438Y-150802381D01*
X141219438Y-150802381D02*
X141409914Y-150802381D01*
X141409914Y-150802381D02*
X141486104Y-150840476D01*
X141486104Y-150840476D02*
X141524200Y-150878571D01*
X141524200Y-150878571D02*
X141562295Y-150954762D01*
X141562295Y-150954762D02*
X141562295Y-151183333D01*
X141562295Y-151183333D02*
X141524200Y-151259524D01*
X141524200Y-151259524D02*
X141486104Y-151297619D01*
X140762295Y-150535714D02*
X140762295Y-150002380D01*
X140762295Y-150002380D02*
X141562295Y-150345238D01*
X138686104Y-158314285D02*
X138724200Y-158352381D01*
X138724200Y-158352381D02*
X138762295Y-158466666D01*
X138762295Y-158466666D02*
X138762295Y-158542857D01*
X138762295Y-158542857D02*
X138724200Y-158657143D01*
X138724200Y-158657143D02*
X138648009Y-158733333D01*
X138648009Y-158733333D02*
X138571819Y-158771428D01*
X138571819Y-158771428D02*
X138419438Y-158809524D01*
X138419438Y-158809524D02*
X138305152Y-158809524D01*
X138305152Y-158809524D02*
X138152771Y-158771428D01*
X138152771Y-158771428D02*
X138076580Y-158733333D01*
X138076580Y-158733333D02*
X138000390Y-158657143D01*
X138000390Y-158657143D02*
X137962295Y-158542857D01*
X137962295Y-158542857D02*
X137962295Y-158466666D01*
X137962295Y-158466666D02*
X138000390Y-158352381D01*
X138000390Y-158352381D02*
X138038485Y-158314285D01*
X138038485Y-158009524D02*
X138000390Y-157971428D01*
X138000390Y-157971428D02*
X137962295Y-157895238D01*
X137962295Y-157895238D02*
X137962295Y-157704762D01*
X137962295Y-157704762D02*
X138000390Y-157628571D01*
X138000390Y-157628571D02*
X138038485Y-157590476D01*
X138038485Y-157590476D02*
X138114676Y-157552381D01*
X138114676Y-157552381D02*
X138190866Y-157552381D01*
X138190866Y-157552381D02*
X138305152Y-157590476D01*
X138305152Y-157590476D02*
X138762295Y-158047619D01*
X138762295Y-158047619D02*
X138762295Y-157552381D01*
X138762295Y-156790476D02*
X138762295Y-157247619D01*
X138762295Y-157019047D02*
X137962295Y-157019047D01*
X137962295Y-157019047D02*
X138076580Y-157095238D01*
X138076580Y-157095238D02*
X138152771Y-157171428D01*
X138152771Y-157171428D02*
X138190866Y-157247619D01*
X136291667Y-162311104D02*
X136253571Y-162349200D01*
X136253571Y-162349200D02*
X136139286Y-162387295D01*
X136139286Y-162387295D02*
X136063095Y-162387295D01*
X136063095Y-162387295D02*
X135948809Y-162349200D01*
X135948809Y-162349200D02*
X135872619Y-162273009D01*
X135872619Y-162273009D02*
X135834524Y-162196819D01*
X135834524Y-162196819D02*
X135796428Y-162044438D01*
X135796428Y-162044438D02*
X135796428Y-161930152D01*
X135796428Y-161930152D02*
X135834524Y-161777771D01*
X135834524Y-161777771D02*
X135872619Y-161701580D01*
X135872619Y-161701580D02*
X135948809Y-161625390D01*
X135948809Y-161625390D02*
X136063095Y-161587295D01*
X136063095Y-161587295D02*
X136139286Y-161587295D01*
X136139286Y-161587295D02*
X136253571Y-161625390D01*
X136253571Y-161625390D02*
X136291667Y-161663485D01*
X137053571Y-162387295D02*
X136596428Y-162387295D01*
X136825000Y-162387295D02*
X136825000Y-161587295D01*
X136825000Y-161587295D02*
X136748809Y-161701580D01*
X136748809Y-161701580D02*
X136672619Y-161777771D01*
X136672619Y-161777771D02*
X136596428Y-161815866D01*
X151386667Y-152892295D02*
X151120000Y-152511342D01*
X150929524Y-152892295D02*
X150929524Y-152092295D01*
X150929524Y-152092295D02*
X151234286Y-152092295D01*
X151234286Y-152092295D02*
X151310476Y-152130390D01*
X151310476Y-152130390D02*
X151348571Y-152168485D01*
X151348571Y-152168485D02*
X151386667Y-152244676D01*
X151386667Y-152244676D02*
X151386667Y-152358961D01*
X151386667Y-152358961D02*
X151348571Y-152435152D01*
X151348571Y-152435152D02*
X151310476Y-152473247D01*
X151310476Y-152473247D02*
X151234286Y-152511342D01*
X151234286Y-152511342D02*
X150929524Y-152511342D01*
X152148571Y-152892295D02*
X151691428Y-152892295D01*
X151920000Y-152892295D02*
X151920000Y-152092295D01*
X151920000Y-152092295D02*
X151843809Y-152206580D01*
X151843809Y-152206580D02*
X151767619Y-152282771D01*
X151767619Y-152282771D02*
X151691428Y-152320866D01*
X132308333Y-147797295D02*
X132308333Y-148368723D01*
X132308333Y-148368723D02*
X132270238Y-148483009D01*
X132270238Y-148483009D02*
X132194047Y-148559200D01*
X132194047Y-148559200D02*
X132079762Y-148597295D01*
X132079762Y-148597295D02*
X132003571Y-148597295D01*
X132651190Y-147873485D02*
X132689286Y-147835390D01*
X132689286Y-147835390D02*
X132765476Y-147797295D01*
X132765476Y-147797295D02*
X132955952Y-147797295D01*
X132955952Y-147797295D02*
X133032143Y-147835390D01*
X133032143Y-147835390D02*
X133070238Y-147873485D01*
X133070238Y-147873485D02*
X133108333Y-147949676D01*
X133108333Y-147949676D02*
X133108333Y-148025866D01*
X133108333Y-148025866D02*
X133070238Y-148140152D01*
X133070238Y-148140152D02*
X132613095Y-148597295D01*
X132613095Y-148597295D02*
X133108333Y-148597295D01*
X137036104Y-152764285D02*
X137074200Y-152802381D01*
X137074200Y-152802381D02*
X137112295Y-152916666D01*
X137112295Y-152916666D02*
X137112295Y-152992857D01*
X137112295Y-152992857D02*
X137074200Y-153107143D01*
X137074200Y-153107143D02*
X136998009Y-153183333D01*
X136998009Y-153183333D02*
X136921819Y-153221428D01*
X136921819Y-153221428D02*
X136769438Y-153259524D01*
X136769438Y-153259524D02*
X136655152Y-153259524D01*
X136655152Y-153259524D02*
X136502771Y-153221428D01*
X136502771Y-153221428D02*
X136426580Y-153183333D01*
X136426580Y-153183333D02*
X136350390Y-153107143D01*
X136350390Y-153107143D02*
X136312295Y-152992857D01*
X136312295Y-152992857D02*
X136312295Y-152916666D01*
X136312295Y-152916666D02*
X136350390Y-152802381D01*
X136350390Y-152802381D02*
X136388485Y-152764285D01*
X136388485Y-152459524D02*
X136350390Y-152421428D01*
X136350390Y-152421428D02*
X136312295Y-152345238D01*
X136312295Y-152345238D02*
X136312295Y-152154762D01*
X136312295Y-152154762D02*
X136350390Y-152078571D01*
X136350390Y-152078571D02*
X136388485Y-152040476D01*
X136388485Y-152040476D02*
X136464676Y-152002381D01*
X136464676Y-152002381D02*
X136540866Y-152002381D01*
X136540866Y-152002381D02*
X136655152Y-152040476D01*
X136655152Y-152040476D02*
X137112295Y-152497619D01*
X137112295Y-152497619D02*
X137112295Y-152002381D01*
X136312295Y-151278571D02*
X136312295Y-151659523D01*
X136312295Y-151659523D02*
X136693247Y-151697619D01*
X136693247Y-151697619D02*
X136655152Y-151659523D01*
X136655152Y-151659523D02*
X136617057Y-151583333D01*
X136617057Y-151583333D02*
X136617057Y-151392857D01*
X136617057Y-151392857D02*
X136655152Y-151316666D01*
X136655152Y-151316666D02*
X136693247Y-151278571D01*
X136693247Y-151278571D02*
X136769438Y-151240476D01*
X136769438Y-151240476D02*
X136959914Y-151240476D01*
X136959914Y-151240476D02*
X137036104Y-151278571D01*
X137036104Y-151278571D02*
X137074200Y-151316666D01*
X137074200Y-151316666D02*
X137112295Y-151392857D01*
X137112295Y-151392857D02*
X137112295Y-151583333D01*
X137112295Y-151583333D02*
X137074200Y-151659523D01*
X137074200Y-151659523D02*
X137036104Y-151697619D01*
X141433333Y-147622295D02*
X141433333Y-148193723D01*
X141433333Y-148193723D02*
X141395238Y-148308009D01*
X141395238Y-148308009D02*
X141319047Y-148384200D01*
X141319047Y-148384200D02*
X141204762Y-148422295D01*
X141204762Y-148422295D02*
X141128571Y-148422295D01*
X141738095Y-147622295D02*
X142233333Y-147622295D01*
X142233333Y-147622295D02*
X141966667Y-147927057D01*
X141966667Y-147927057D02*
X142080952Y-147927057D01*
X142080952Y-147927057D02*
X142157143Y-147965152D01*
X142157143Y-147965152D02*
X142195238Y-148003247D01*
X142195238Y-148003247D02*
X142233333Y-148079438D01*
X142233333Y-148079438D02*
X142233333Y-148269914D01*
X142233333Y-148269914D02*
X142195238Y-148346104D01*
X142195238Y-148346104D02*
X142157143Y-148384200D01*
X142157143Y-148384200D02*
X142080952Y-148422295D01*
X142080952Y-148422295D02*
X141852381Y-148422295D01*
X141852381Y-148422295D02*
X141776190Y-148384200D01*
X141776190Y-148384200D02*
X141738095Y-148346104D01*
X146665478Y-163282540D02*
X146665478Y-163930159D01*
X146665478Y-163930159D02*
X146703573Y-164006349D01*
X146703573Y-164006349D02*
X146741668Y-164044445D01*
X146741668Y-164044445D02*
X146817859Y-164082540D01*
X146817859Y-164082540D02*
X146970240Y-164082540D01*
X146970240Y-164082540D02*
X147046430Y-164044445D01*
X147046430Y-164044445D02*
X147084525Y-164006349D01*
X147084525Y-164006349D02*
X147122621Y-163930159D01*
X147122621Y-163930159D02*
X147122621Y-163282540D01*
X147465477Y-163358730D02*
X147503573Y-163320635D01*
X147503573Y-163320635D02*
X147579763Y-163282540D01*
X147579763Y-163282540D02*
X147770239Y-163282540D01*
X147770239Y-163282540D02*
X147846430Y-163320635D01*
X147846430Y-163320635D02*
X147884525Y-163358730D01*
X147884525Y-163358730D02*
X147922620Y-163434921D01*
X147922620Y-163434921D02*
X147922620Y-163511111D01*
X147922620Y-163511111D02*
X147884525Y-163625397D01*
X147884525Y-163625397D02*
X147427382Y-164082540D01*
X147427382Y-164082540D02*
X147922620Y-164082540D01*
X136910714Y-160586104D02*
X136872618Y-160624200D01*
X136872618Y-160624200D02*
X136758333Y-160662295D01*
X136758333Y-160662295D02*
X136682142Y-160662295D01*
X136682142Y-160662295D02*
X136567856Y-160624200D01*
X136567856Y-160624200D02*
X136491666Y-160548009D01*
X136491666Y-160548009D02*
X136453571Y-160471819D01*
X136453571Y-160471819D02*
X136415475Y-160319438D01*
X136415475Y-160319438D02*
X136415475Y-160205152D01*
X136415475Y-160205152D02*
X136453571Y-160052771D01*
X136453571Y-160052771D02*
X136491666Y-159976580D01*
X136491666Y-159976580D02*
X136567856Y-159900390D01*
X136567856Y-159900390D02*
X136682142Y-159862295D01*
X136682142Y-159862295D02*
X136758333Y-159862295D01*
X136758333Y-159862295D02*
X136872618Y-159900390D01*
X136872618Y-159900390D02*
X136910714Y-159938485D01*
X137672618Y-160662295D02*
X137215475Y-160662295D01*
X137444047Y-160662295D02*
X137444047Y-159862295D01*
X137444047Y-159862295D02*
X137367856Y-159976580D01*
X137367856Y-159976580D02*
X137291666Y-160052771D01*
X137291666Y-160052771D02*
X137215475Y-160090866D01*
X138167857Y-159862295D02*
X138244047Y-159862295D01*
X138244047Y-159862295D02*
X138320238Y-159900390D01*
X138320238Y-159900390D02*
X138358333Y-159938485D01*
X138358333Y-159938485D02*
X138396428Y-160014676D01*
X138396428Y-160014676D02*
X138434523Y-160167057D01*
X138434523Y-160167057D02*
X138434523Y-160357533D01*
X138434523Y-160357533D02*
X138396428Y-160509914D01*
X138396428Y-160509914D02*
X138358333Y-160586104D01*
X138358333Y-160586104D02*
X138320238Y-160624200D01*
X138320238Y-160624200D02*
X138244047Y-160662295D01*
X138244047Y-160662295D02*
X138167857Y-160662295D01*
X138167857Y-160662295D02*
X138091666Y-160624200D01*
X138091666Y-160624200D02*
X138053571Y-160586104D01*
X138053571Y-160586104D02*
X138015476Y-160509914D01*
X138015476Y-160509914D02*
X137977380Y-160357533D01*
X137977380Y-160357533D02*
X137977380Y-160167057D01*
X137977380Y-160167057D02*
X138015476Y-160014676D01*
X138015476Y-160014676D02*
X138053571Y-159938485D01*
X138053571Y-159938485D02*
X138091666Y-159900390D01*
X138091666Y-159900390D02*
X138167857Y-159862295D01*
X149935714Y-160536104D02*
X149897618Y-160574200D01*
X149897618Y-160574200D02*
X149783333Y-160612295D01*
X149783333Y-160612295D02*
X149707142Y-160612295D01*
X149707142Y-160612295D02*
X149592856Y-160574200D01*
X149592856Y-160574200D02*
X149516666Y-160498009D01*
X149516666Y-160498009D02*
X149478571Y-160421819D01*
X149478571Y-160421819D02*
X149440475Y-160269438D01*
X149440475Y-160269438D02*
X149440475Y-160155152D01*
X149440475Y-160155152D02*
X149478571Y-160002771D01*
X149478571Y-160002771D02*
X149516666Y-159926580D01*
X149516666Y-159926580D02*
X149592856Y-159850390D01*
X149592856Y-159850390D02*
X149707142Y-159812295D01*
X149707142Y-159812295D02*
X149783333Y-159812295D01*
X149783333Y-159812295D02*
X149897618Y-159850390D01*
X149897618Y-159850390D02*
X149935714Y-159888485D01*
X150240475Y-159888485D02*
X150278571Y-159850390D01*
X150278571Y-159850390D02*
X150354761Y-159812295D01*
X150354761Y-159812295D02*
X150545237Y-159812295D01*
X150545237Y-159812295D02*
X150621428Y-159850390D01*
X150621428Y-159850390D02*
X150659523Y-159888485D01*
X150659523Y-159888485D02*
X150697618Y-159964676D01*
X150697618Y-159964676D02*
X150697618Y-160040866D01*
X150697618Y-160040866D02*
X150659523Y-160155152D01*
X150659523Y-160155152D02*
X150202380Y-160612295D01*
X150202380Y-160612295D02*
X150697618Y-160612295D01*
X150964285Y-159812295D02*
X151459523Y-159812295D01*
X151459523Y-159812295D02*
X151192857Y-160117057D01*
X151192857Y-160117057D02*
X151307142Y-160117057D01*
X151307142Y-160117057D02*
X151383333Y-160155152D01*
X151383333Y-160155152D02*
X151421428Y-160193247D01*
X151421428Y-160193247D02*
X151459523Y-160269438D01*
X151459523Y-160269438D02*
X151459523Y-160459914D01*
X151459523Y-160459914D02*
X151421428Y-160536104D01*
X151421428Y-160536104D02*
X151383333Y-160574200D01*
X151383333Y-160574200D02*
X151307142Y-160612295D01*
X151307142Y-160612295D02*
X151078571Y-160612295D01*
X151078571Y-160612295D02*
X151002380Y-160574200D01*
X151002380Y-160574200D02*
X150964285Y-160536104D01*
X140612295Y-154383332D02*
X140231342Y-154649999D01*
X140612295Y-154840475D02*
X139812295Y-154840475D01*
X139812295Y-154840475D02*
X139812295Y-154535713D01*
X139812295Y-154535713D02*
X139850390Y-154459523D01*
X139850390Y-154459523D02*
X139888485Y-154421428D01*
X139888485Y-154421428D02*
X139964676Y-154383332D01*
X139964676Y-154383332D02*
X140078961Y-154383332D01*
X140078961Y-154383332D02*
X140155152Y-154421428D01*
X140155152Y-154421428D02*
X140193247Y-154459523D01*
X140193247Y-154459523D02*
X140231342Y-154535713D01*
X140231342Y-154535713D02*
X140231342Y-154840475D01*
X139812295Y-154116666D02*
X139812295Y-153621428D01*
X139812295Y-153621428D02*
X140117057Y-153888094D01*
X140117057Y-153888094D02*
X140117057Y-153773809D01*
X140117057Y-153773809D02*
X140155152Y-153697618D01*
X140155152Y-153697618D02*
X140193247Y-153659523D01*
X140193247Y-153659523D02*
X140269438Y-153621428D01*
X140269438Y-153621428D02*
X140459914Y-153621428D01*
X140459914Y-153621428D02*
X140536104Y-153659523D01*
X140536104Y-153659523D02*
X140574200Y-153697618D01*
X140574200Y-153697618D02*
X140612295Y-153773809D01*
X140612295Y-153773809D02*
X140612295Y-154002380D01*
X140612295Y-154002380D02*
X140574200Y-154078571D01*
X140574200Y-154078571D02*
X140536104Y-154116666D01*
X142716667Y-159786104D02*
X142678571Y-159824200D01*
X142678571Y-159824200D02*
X142564286Y-159862295D01*
X142564286Y-159862295D02*
X142488095Y-159862295D01*
X142488095Y-159862295D02*
X142373809Y-159824200D01*
X142373809Y-159824200D02*
X142297619Y-159748009D01*
X142297619Y-159748009D02*
X142259524Y-159671819D01*
X142259524Y-159671819D02*
X142221428Y-159519438D01*
X142221428Y-159519438D02*
X142221428Y-159405152D01*
X142221428Y-159405152D02*
X142259524Y-159252771D01*
X142259524Y-159252771D02*
X142297619Y-159176580D01*
X142297619Y-159176580D02*
X142373809Y-159100390D01*
X142373809Y-159100390D02*
X142488095Y-159062295D01*
X142488095Y-159062295D02*
X142564286Y-159062295D01*
X142564286Y-159062295D02*
X142678571Y-159100390D01*
X142678571Y-159100390D02*
X142716667Y-159138485D01*
X143440476Y-159062295D02*
X143059524Y-159062295D01*
X143059524Y-159062295D02*
X143021428Y-159443247D01*
X143021428Y-159443247D02*
X143059524Y-159405152D01*
X143059524Y-159405152D02*
X143135714Y-159367057D01*
X143135714Y-159367057D02*
X143326190Y-159367057D01*
X143326190Y-159367057D02*
X143402381Y-159405152D01*
X143402381Y-159405152D02*
X143440476Y-159443247D01*
X143440476Y-159443247D02*
X143478571Y-159519438D01*
X143478571Y-159519438D02*
X143478571Y-159709914D01*
X143478571Y-159709914D02*
X143440476Y-159786104D01*
X143440476Y-159786104D02*
X143402381Y-159824200D01*
X143402381Y-159824200D02*
X143326190Y-159862295D01*
X143326190Y-159862295D02*
X143135714Y-159862295D01*
X143135714Y-159862295D02*
X143059524Y-159824200D01*
X143059524Y-159824200D02*
X143021428Y-159786104D01*
X140936104Y-157614285D02*
X140974200Y-157652381D01*
X140974200Y-157652381D02*
X141012295Y-157766666D01*
X141012295Y-157766666D02*
X141012295Y-157842857D01*
X141012295Y-157842857D02*
X140974200Y-157957143D01*
X140974200Y-157957143D02*
X140898009Y-158033333D01*
X140898009Y-158033333D02*
X140821819Y-158071428D01*
X140821819Y-158071428D02*
X140669438Y-158109524D01*
X140669438Y-158109524D02*
X140555152Y-158109524D01*
X140555152Y-158109524D02*
X140402771Y-158071428D01*
X140402771Y-158071428D02*
X140326580Y-158033333D01*
X140326580Y-158033333D02*
X140250390Y-157957143D01*
X140250390Y-157957143D02*
X140212295Y-157842857D01*
X140212295Y-157842857D02*
X140212295Y-157766666D01*
X140212295Y-157766666D02*
X140250390Y-157652381D01*
X140250390Y-157652381D02*
X140288485Y-157614285D01*
X140212295Y-157347619D02*
X140212295Y-156852381D01*
X140212295Y-156852381D02*
X140517057Y-157119047D01*
X140517057Y-157119047D02*
X140517057Y-157004762D01*
X140517057Y-157004762D02*
X140555152Y-156928571D01*
X140555152Y-156928571D02*
X140593247Y-156890476D01*
X140593247Y-156890476D02*
X140669438Y-156852381D01*
X140669438Y-156852381D02*
X140859914Y-156852381D01*
X140859914Y-156852381D02*
X140936104Y-156890476D01*
X140936104Y-156890476D02*
X140974200Y-156928571D01*
X140974200Y-156928571D02*
X141012295Y-157004762D01*
X141012295Y-157004762D02*
X141012295Y-157233333D01*
X141012295Y-157233333D02*
X140974200Y-157309524D01*
X140974200Y-157309524D02*
X140936104Y-157347619D01*
X140288485Y-156547619D02*
X140250390Y-156509523D01*
X140250390Y-156509523D02*
X140212295Y-156433333D01*
X140212295Y-156433333D02*
X140212295Y-156242857D01*
X140212295Y-156242857D02*
X140250390Y-156166666D01*
X140250390Y-156166666D02*
X140288485Y-156128571D01*
X140288485Y-156128571D02*
X140364676Y-156090476D01*
X140364676Y-156090476D02*
X140440866Y-156090476D01*
X140440866Y-156090476D02*
X140555152Y-156128571D01*
X140555152Y-156128571D02*
X141012295Y-156585714D01*
X141012295Y-156585714D02*
X141012295Y-156090476D01*
X151816667Y-154912295D02*
X151550000Y-154531342D01*
X151359524Y-154912295D02*
X151359524Y-154112295D01*
X151359524Y-154112295D02*
X151664286Y-154112295D01*
X151664286Y-154112295D02*
X151740476Y-154150390D01*
X151740476Y-154150390D02*
X151778571Y-154188485D01*
X151778571Y-154188485D02*
X151816667Y-154264676D01*
X151816667Y-154264676D02*
X151816667Y-154378961D01*
X151816667Y-154378961D02*
X151778571Y-154455152D01*
X151778571Y-154455152D02*
X151740476Y-154493247D01*
X151740476Y-154493247D02*
X151664286Y-154531342D01*
X151664286Y-154531342D02*
X151359524Y-154531342D01*
X152121428Y-154188485D02*
X152159524Y-154150390D01*
X152159524Y-154150390D02*
X152235714Y-154112295D01*
X152235714Y-154112295D02*
X152426190Y-154112295D01*
X152426190Y-154112295D02*
X152502381Y-154150390D01*
X152502381Y-154150390D02*
X152540476Y-154188485D01*
X152540476Y-154188485D02*
X152578571Y-154264676D01*
X152578571Y-154264676D02*
X152578571Y-154340866D01*
X152578571Y-154340866D02*
X152540476Y-154455152D01*
X152540476Y-154455152D02*
X152083333Y-154912295D01*
X152083333Y-154912295D02*
X152578571Y-154912295D01*
X134811667Y-162561104D02*
X134773571Y-162599200D01*
X134773571Y-162599200D02*
X134659286Y-162637295D01*
X134659286Y-162637295D02*
X134583095Y-162637295D01*
X134583095Y-162637295D02*
X134468809Y-162599200D01*
X134468809Y-162599200D02*
X134392619Y-162523009D01*
X134392619Y-162523009D02*
X134354524Y-162446819D01*
X134354524Y-162446819D02*
X134316428Y-162294438D01*
X134316428Y-162294438D02*
X134316428Y-162180152D01*
X134316428Y-162180152D02*
X134354524Y-162027771D01*
X134354524Y-162027771D02*
X134392619Y-161951580D01*
X134392619Y-161951580D02*
X134468809Y-161875390D01*
X134468809Y-161875390D02*
X134583095Y-161837295D01*
X134583095Y-161837295D02*
X134659286Y-161837295D01*
X134659286Y-161837295D02*
X134773571Y-161875390D01*
X134773571Y-161875390D02*
X134811667Y-161913485D01*
X135116428Y-161913485D02*
X135154524Y-161875390D01*
X135154524Y-161875390D02*
X135230714Y-161837295D01*
X135230714Y-161837295D02*
X135421190Y-161837295D01*
X135421190Y-161837295D02*
X135497381Y-161875390D01*
X135497381Y-161875390D02*
X135535476Y-161913485D01*
X135535476Y-161913485D02*
X135573571Y-161989676D01*
X135573571Y-161989676D02*
X135573571Y-162065866D01*
X135573571Y-162065866D02*
X135535476Y-162180152D01*
X135535476Y-162180152D02*
X135078333Y-162637295D01*
X135078333Y-162637295D02*
X135573571Y-162637295D01*
X148755860Y-171287293D02*
X148755860Y-171858721D01*
X148755860Y-171858721D02*
X148717765Y-171973007D01*
X148717765Y-171973007D02*
X148641574Y-172049198D01*
X148641574Y-172049198D02*
X148527289Y-172087293D01*
X148527289Y-172087293D02*
X148451098Y-172087293D01*
X149555860Y-172087293D02*
X149098717Y-172087293D01*
X149327289Y-172087293D02*
X149327289Y-171287293D01*
X149327289Y-171287293D02*
X149251098Y-171401578D01*
X149251098Y-171401578D02*
X149174908Y-171477769D01*
X149174908Y-171477769D02*
X149098717Y-171515864D01*
X150827101Y-164134998D02*
X151065196Y-164134998D01*
X150969958Y-164373093D02*
X151065196Y-164134998D01*
X151065196Y-164134998D02*
X150969958Y-163896903D01*
X151255672Y-164277855D02*
X151065196Y-164134998D01*
X151065196Y-164134998D02*
X151255672Y-163992141D01*
X151967462Y-164094999D02*
X151729367Y-164094999D01*
X151824605Y-163856904D02*
X151729367Y-164094999D01*
X151729367Y-164094999D02*
X151824605Y-164333094D01*
X151538891Y-163952142D02*
X151729367Y-164094999D01*
X151729367Y-164094999D02*
X151538891Y-164237856D01*
X141085714Y-162036104D02*
X141047618Y-162074200D01*
X141047618Y-162074200D02*
X140933333Y-162112295D01*
X140933333Y-162112295D02*
X140857142Y-162112295D01*
X140857142Y-162112295D02*
X140742856Y-162074200D01*
X140742856Y-162074200D02*
X140666666Y-161998009D01*
X140666666Y-161998009D02*
X140628571Y-161921819D01*
X140628571Y-161921819D02*
X140590475Y-161769438D01*
X140590475Y-161769438D02*
X140590475Y-161655152D01*
X140590475Y-161655152D02*
X140628571Y-161502771D01*
X140628571Y-161502771D02*
X140666666Y-161426580D01*
X140666666Y-161426580D02*
X140742856Y-161350390D01*
X140742856Y-161350390D02*
X140857142Y-161312295D01*
X140857142Y-161312295D02*
X140933333Y-161312295D01*
X140933333Y-161312295D02*
X141047618Y-161350390D01*
X141047618Y-161350390D02*
X141085714Y-161388485D01*
X141352380Y-161312295D02*
X141847618Y-161312295D01*
X141847618Y-161312295D02*
X141580952Y-161617057D01*
X141580952Y-161617057D02*
X141695237Y-161617057D01*
X141695237Y-161617057D02*
X141771428Y-161655152D01*
X141771428Y-161655152D02*
X141809523Y-161693247D01*
X141809523Y-161693247D02*
X141847618Y-161769438D01*
X141847618Y-161769438D02*
X141847618Y-161959914D01*
X141847618Y-161959914D02*
X141809523Y-162036104D01*
X141809523Y-162036104D02*
X141771428Y-162074200D01*
X141771428Y-162074200D02*
X141695237Y-162112295D01*
X141695237Y-162112295D02*
X141466666Y-162112295D01*
X141466666Y-162112295D02*
X141390475Y-162074200D01*
X141390475Y-162074200D02*
X141352380Y-162036104D01*
X142609523Y-162112295D02*
X142152380Y-162112295D01*
X142380952Y-162112295D02*
X142380952Y-161312295D01*
X142380952Y-161312295D02*
X142304761Y-161426580D01*
X142304761Y-161426580D02*
X142228571Y-161502771D01*
X142228571Y-161502771D02*
X142152380Y-161540866D01*
X146941667Y-162836104D02*
X146903571Y-162874200D01*
X146903571Y-162874200D02*
X146789286Y-162912295D01*
X146789286Y-162912295D02*
X146713095Y-162912295D01*
X146713095Y-162912295D02*
X146598809Y-162874200D01*
X146598809Y-162874200D02*
X146522619Y-162798009D01*
X146522619Y-162798009D02*
X146484524Y-162721819D01*
X146484524Y-162721819D02*
X146446428Y-162569438D01*
X146446428Y-162569438D02*
X146446428Y-162455152D01*
X146446428Y-162455152D02*
X146484524Y-162302771D01*
X146484524Y-162302771D02*
X146522619Y-162226580D01*
X146522619Y-162226580D02*
X146598809Y-162150390D01*
X146598809Y-162150390D02*
X146713095Y-162112295D01*
X146713095Y-162112295D02*
X146789286Y-162112295D01*
X146789286Y-162112295D02*
X146903571Y-162150390D01*
X146903571Y-162150390D02*
X146941667Y-162188485D01*
X147322619Y-162912295D02*
X147475000Y-162912295D01*
X147475000Y-162912295D02*
X147551190Y-162874200D01*
X147551190Y-162874200D02*
X147589286Y-162836104D01*
X147589286Y-162836104D02*
X147665476Y-162721819D01*
X147665476Y-162721819D02*
X147703571Y-162569438D01*
X147703571Y-162569438D02*
X147703571Y-162264676D01*
X147703571Y-162264676D02*
X147665476Y-162188485D01*
X147665476Y-162188485D02*
X147627381Y-162150390D01*
X147627381Y-162150390D02*
X147551190Y-162112295D01*
X147551190Y-162112295D02*
X147398809Y-162112295D01*
X147398809Y-162112295D02*
X147322619Y-162150390D01*
X147322619Y-162150390D02*
X147284524Y-162188485D01*
X147284524Y-162188485D02*
X147246428Y-162264676D01*
X147246428Y-162264676D02*
X147246428Y-162455152D01*
X147246428Y-162455152D02*
X147284524Y-162531342D01*
X147284524Y-162531342D02*
X147322619Y-162569438D01*
X147322619Y-162569438D02*
X147398809Y-162607533D01*
X147398809Y-162607533D02*
X147551190Y-162607533D01*
X147551190Y-162607533D02*
X147627381Y-162569438D01*
X147627381Y-162569438D02*
X147665476Y-162531342D01*
X147665476Y-162531342D02*
X147703571Y-162455152D01*
X134891104Y-152639285D02*
X134929200Y-152677381D01*
X134929200Y-152677381D02*
X134967295Y-152791666D01*
X134967295Y-152791666D02*
X134967295Y-152867857D01*
X134967295Y-152867857D02*
X134929200Y-152982143D01*
X134929200Y-152982143D02*
X134853009Y-153058333D01*
X134853009Y-153058333D02*
X134776819Y-153096428D01*
X134776819Y-153096428D02*
X134624438Y-153134524D01*
X134624438Y-153134524D02*
X134510152Y-153134524D01*
X134510152Y-153134524D02*
X134357771Y-153096428D01*
X134357771Y-153096428D02*
X134281580Y-153058333D01*
X134281580Y-153058333D02*
X134205390Y-152982143D01*
X134205390Y-152982143D02*
X134167295Y-152867857D01*
X134167295Y-152867857D02*
X134167295Y-152791666D01*
X134167295Y-152791666D02*
X134205390Y-152677381D01*
X134205390Y-152677381D02*
X134243485Y-152639285D01*
X134967295Y-151877381D02*
X134967295Y-152334524D01*
X134967295Y-152105952D02*
X134167295Y-152105952D01*
X134167295Y-152105952D02*
X134281580Y-152182143D01*
X134281580Y-152182143D02*
X134357771Y-152258333D01*
X134357771Y-152258333D02*
X134395866Y-152334524D01*
X134967295Y-151115476D02*
X134967295Y-151572619D01*
X134967295Y-151344047D02*
X134167295Y-151344047D01*
X134167295Y-151344047D02*
X134281580Y-151420238D01*
X134281580Y-151420238D02*
X134357771Y-151496428D01*
X134357771Y-151496428D02*
X134395866Y-151572619D01*
X142036104Y-164134285D02*
X142074200Y-164172381D01*
X142074200Y-164172381D02*
X142112295Y-164286666D01*
X142112295Y-164286666D02*
X142112295Y-164362857D01*
X142112295Y-164362857D02*
X142074200Y-164477143D01*
X142074200Y-164477143D02*
X141998009Y-164553333D01*
X141998009Y-164553333D02*
X141921819Y-164591428D01*
X141921819Y-164591428D02*
X141769438Y-164629524D01*
X141769438Y-164629524D02*
X141655152Y-164629524D01*
X141655152Y-164629524D02*
X141502771Y-164591428D01*
X141502771Y-164591428D02*
X141426580Y-164553333D01*
X141426580Y-164553333D02*
X141350390Y-164477143D01*
X141350390Y-164477143D02*
X141312295Y-164362857D01*
X141312295Y-164362857D02*
X141312295Y-164286666D01*
X141312295Y-164286666D02*
X141350390Y-164172381D01*
X141350390Y-164172381D02*
X141388485Y-164134285D01*
X141578961Y-163448571D02*
X142112295Y-163448571D01*
X141274200Y-163639047D02*
X141845628Y-163829524D01*
X141845628Y-163829524D02*
X141845628Y-163334285D01*
X141388485Y-163067619D02*
X141350390Y-163029523D01*
X141350390Y-163029523D02*
X141312295Y-162953333D01*
X141312295Y-162953333D02*
X141312295Y-162762857D01*
X141312295Y-162762857D02*
X141350390Y-162686666D01*
X141350390Y-162686666D02*
X141388485Y-162648571D01*
X141388485Y-162648571D02*
X141464676Y-162610476D01*
X141464676Y-162610476D02*
X141540866Y-162610476D01*
X141540866Y-162610476D02*
X141655152Y-162648571D01*
X141655152Y-162648571D02*
X142112295Y-163105714D01*
X142112295Y-163105714D02*
X142112295Y-162610476D01*
X148385714Y-167381349D02*
X148347618Y-167419445D01*
X148347618Y-167419445D02*
X148233333Y-167457540D01*
X148233333Y-167457540D02*
X148157142Y-167457540D01*
X148157142Y-167457540D02*
X148042856Y-167419445D01*
X148042856Y-167419445D02*
X147966666Y-167343254D01*
X147966666Y-167343254D02*
X147928571Y-167267064D01*
X147928571Y-167267064D02*
X147890475Y-167114683D01*
X147890475Y-167114683D02*
X147890475Y-167000397D01*
X147890475Y-167000397D02*
X147928571Y-166848016D01*
X147928571Y-166848016D02*
X147966666Y-166771825D01*
X147966666Y-166771825D02*
X148042856Y-166695635D01*
X148042856Y-166695635D02*
X148157142Y-166657540D01*
X148157142Y-166657540D02*
X148233333Y-166657540D01*
X148233333Y-166657540D02*
X148347618Y-166695635D01*
X148347618Y-166695635D02*
X148385714Y-166733730D01*
X148652380Y-166657540D02*
X149147618Y-166657540D01*
X149147618Y-166657540D02*
X148880952Y-166962302D01*
X148880952Y-166962302D02*
X148995237Y-166962302D01*
X148995237Y-166962302D02*
X149071428Y-167000397D01*
X149071428Y-167000397D02*
X149109523Y-167038492D01*
X149109523Y-167038492D02*
X149147618Y-167114683D01*
X149147618Y-167114683D02*
X149147618Y-167305159D01*
X149147618Y-167305159D02*
X149109523Y-167381349D01*
X149109523Y-167381349D02*
X149071428Y-167419445D01*
X149071428Y-167419445D02*
X148995237Y-167457540D01*
X148995237Y-167457540D02*
X148766666Y-167457540D01*
X148766666Y-167457540D02*
X148690475Y-167419445D01*
X148690475Y-167419445D02*
X148652380Y-167381349D01*
X149642857Y-166657540D02*
X149719047Y-166657540D01*
X149719047Y-166657540D02*
X149795238Y-166695635D01*
X149795238Y-166695635D02*
X149833333Y-166733730D01*
X149833333Y-166733730D02*
X149871428Y-166809921D01*
X149871428Y-166809921D02*
X149909523Y-166962302D01*
X149909523Y-166962302D02*
X149909523Y-167152778D01*
X149909523Y-167152778D02*
X149871428Y-167305159D01*
X149871428Y-167305159D02*
X149833333Y-167381349D01*
X149833333Y-167381349D02*
X149795238Y-167419445D01*
X149795238Y-167419445D02*
X149719047Y-167457540D01*
X149719047Y-167457540D02*
X149642857Y-167457540D01*
X149642857Y-167457540D02*
X149566666Y-167419445D01*
X149566666Y-167419445D02*
X149528571Y-167381349D01*
X149528571Y-167381349D02*
X149490476Y-167305159D01*
X149490476Y-167305159D02*
X149452380Y-167152778D01*
X149452380Y-167152778D02*
X149452380Y-166962302D01*
X149452380Y-166962302D02*
X149490476Y-166809921D01*
X149490476Y-166809921D02*
X149528571Y-166733730D01*
X149528571Y-166733730D02*
X149566666Y-166695635D01*
X149566666Y-166695635D02*
X149642857Y-166657540D01*
X136941667Y-165537295D02*
X136675000Y-165156342D01*
X136484524Y-165537295D02*
X136484524Y-164737295D01*
X136484524Y-164737295D02*
X136789286Y-164737295D01*
X136789286Y-164737295D02*
X136865476Y-164775390D01*
X136865476Y-164775390D02*
X136903571Y-164813485D01*
X136903571Y-164813485D02*
X136941667Y-164889676D01*
X136941667Y-164889676D02*
X136941667Y-165003961D01*
X136941667Y-165003961D02*
X136903571Y-165080152D01*
X136903571Y-165080152D02*
X136865476Y-165118247D01*
X136865476Y-165118247D02*
X136789286Y-165156342D01*
X136789286Y-165156342D02*
X136484524Y-165156342D01*
X137627381Y-164737295D02*
X137475000Y-164737295D01*
X137475000Y-164737295D02*
X137398809Y-164775390D01*
X137398809Y-164775390D02*
X137360714Y-164813485D01*
X137360714Y-164813485D02*
X137284524Y-164927771D01*
X137284524Y-164927771D02*
X137246428Y-165080152D01*
X137246428Y-165080152D02*
X137246428Y-165384914D01*
X137246428Y-165384914D02*
X137284524Y-165461104D01*
X137284524Y-165461104D02*
X137322619Y-165499200D01*
X137322619Y-165499200D02*
X137398809Y-165537295D01*
X137398809Y-165537295D02*
X137551190Y-165537295D01*
X137551190Y-165537295D02*
X137627381Y-165499200D01*
X137627381Y-165499200D02*
X137665476Y-165461104D01*
X137665476Y-165461104D02*
X137703571Y-165384914D01*
X137703571Y-165384914D02*
X137703571Y-165194438D01*
X137703571Y-165194438D02*
X137665476Y-165118247D01*
X137665476Y-165118247D02*
X137627381Y-165080152D01*
X137627381Y-165080152D02*
X137551190Y-165042057D01*
X137551190Y-165042057D02*
X137398809Y-165042057D01*
X137398809Y-165042057D02*
X137322619Y-165080152D01*
X137322619Y-165080152D02*
X137284524Y-165118247D01*
X137284524Y-165118247D02*
X137246428Y-165194438D01*
X138666666Y-170357540D02*
X138285714Y-170357540D01*
X138285714Y-170357540D02*
X138285714Y-169557540D01*
X138857142Y-169557540D02*
X139352380Y-169557540D01*
X139352380Y-169557540D02*
X139085714Y-169862302D01*
X139085714Y-169862302D02*
X139199999Y-169862302D01*
X139199999Y-169862302D02*
X139276190Y-169900397D01*
X139276190Y-169900397D02*
X139314285Y-169938492D01*
X139314285Y-169938492D02*
X139352380Y-170014683D01*
X139352380Y-170014683D02*
X139352380Y-170205159D01*
X139352380Y-170205159D02*
X139314285Y-170281349D01*
X139314285Y-170281349D02*
X139276190Y-170319445D01*
X139276190Y-170319445D02*
X139199999Y-170357540D01*
X139199999Y-170357540D02*
X138971428Y-170357540D01*
X138971428Y-170357540D02*
X138895237Y-170319445D01*
X138895237Y-170319445D02*
X138857142Y-170281349D01*
X148686104Y-165629530D02*
X148724200Y-165667626D01*
X148724200Y-165667626D02*
X148762295Y-165781911D01*
X148762295Y-165781911D02*
X148762295Y-165858102D01*
X148762295Y-165858102D02*
X148724200Y-165972388D01*
X148724200Y-165972388D02*
X148648009Y-166048578D01*
X148648009Y-166048578D02*
X148571819Y-166086673D01*
X148571819Y-166086673D02*
X148419438Y-166124769D01*
X148419438Y-166124769D02*
X148305152Y-166124769D01*
X148305152Y-166124769D02*
X148152771Y-166086673D01*
X148152771Y-166086673D02*
X148076580Y-166048578D01*
X148076580Y-166048578D02*
X148000390Y-165972388D01*
X148000390Y-165972388D02*
X147962295Y-165858102D01*
X147962295Y-165858102D02*
X147962295Y-165781911D01*
X147962295Y-165781911D02*
X148000390Y-165667626D01*
X148000390Y-165667626D02*
X148038485Y-165629530D01*
X148038485Y-165324769D02*
X148000390Y-165286673D01*
X148000390Y-165286673D02*
X147962295Y-165210483D01*
X147962295Y-165210483D02*
X147962295Y-165020007D01*
X147962295Y-165020007D02*
X148000390Y-164943816D01*
X148000390Y-164943816D02*
X148038485Y-164905721D01*
X148038485Y-164905721D02*
X148114676Y-164867626D01*
X148114676Y-164867626D02*
X148190866Y-164867626D01*
X148190866Y-164867626D02*
X148305152Y-164905721D01*
X148305152Y-164905721D02*
X148762295Y-165362864D01*
X148762295Y-165362864D02*
X148762295Y-164867626D01*
X148305152Y-164410483D02*
X148267057Y-164486673D01*
X148267057Y-164486673D02*
X148228961Y-164524768D01*
X148228961Y-164524768D02*
X148152771Y-164562864D01*
X148152771Y-164562864D02*
X148114676Y-164562864D01*
X148114676Y-164562864D02*
X148038485Y-164524768D01*
X148038485Y-164524768D02*
X148000390Y-164486673D01*
X148000390Y-164486673D02*
X147962295Y-164410483D01*
X147962295Y-164410483D02*
X147962295Y-164258102D01*
X147962295Y-164258102D02*
X148000390Y-164181911D01*
X148000390Y-164181911D02*
X148038485Y-164143816D01*
X148038485Y-164143816D02*
X148114676Y-164105721D01*
X148114676Y-164105721D02*
X148152771Y-164105721D01*
X148152771Y-164105721D02*
X148228961Y-164143816D01*
X148228961Y-164143816D02*
X148267057Y-164181911D01*
X148267057Y-164181911D02*
X148305152Y-164258102D01*
X148305152Y-164258102D02*
X148305152Y-164410483D01*
X148305152Y-164410483D02*
X148343247Y-164486673D01*
X148343247Y-164486673D02*
X148381342Y-164524768D01*
X148381342Y-164524768D02*
X148457533Y-164562864D01*
X148457533Y-164562864D02*
X148609914Y-164562864D01*
X148609914Y-164562864D02*
X148686104Y-164524768D01*
X148686104Y-164524768D02*
X148724200Y-164486673D01*
X148724200Y-164486673D02*
X148762295Y-164410483D01*
X148762295Y-164410483D02*
X148762295Y-164258102D01*
X148762295Y-164258102D02*
X148724200Y-164181911D01*
X148724200Y-164181911D02*
X148686104Y-164143816D01*
X148686104Y-164143816D02*
X148609914Y-164105721D01*
X148609914Y-164105721D02*
X148457533Y-164105721D01*
X148457533Y-164105721D02*
X148381342Y-164143816D01*
X148381342Y-164143816D02*
X148343247Y-164181911D01*
X148343247Y-164181911D02*
X148305152Y-164258102D01*
X146841667Y-161836104D02*
X146803571Y-161874200D01*
X146803571Y-161874200D02*
X146689286Y-161912295D01*
X146689286Y-161912295D02*
X146613095Y-161912295D01*
X146613095Y-161912295D02*
X146498809Y-161874200D01*
X146498809Y-161874200D02*
X146422619Y-161798009D01*
X146422619Y-161798009D02*
X146384524Y-161721819D01*
X146384524Y-161721819D02*
X146346428Y-161569438D01*
X146346428Y-161569438D02*
X146346428Y-161455152D01*
X146346428Y-161455152D02*
X146384524Y-161302771D01*
X146384524Y-161302771D02*
X146422619Y-161226580D01*
X146422619Y-161226580D02*
X146498809Y-161150390D01*
X146498809Y-161150390D02*
X146613095Y-161112295D01*
X146613095Y-161112295D02*
X146689286Y-161112295D01*
X146689286Y-161112295D02*
X146803571Y-161150390D01*
X146803571Y-161150390D02*
X146841667Y-161188485D01*
X147108333Y-161112295D02*
X147641667Y-161112295D01*
X147641667Y-161112295D02*
X147298809Y-161912295D01*
X153933333Y-164002295D02*
X153933333Y-164573723D01*
X153933333Y-164573723D02*
X153895238Y-164688009D01*
X153895238Y-164688009D02*
X153819047Y-164764200D01*
X153819047Y-164764200D02*
X153704762Y-164802295D01*
X153704762Y-164802295D02*
X153628571Y-164802295D01*
X154657143Y-164268961D02*
X154657143Y-164802295D01*
X154466667Y-163964200D02*
X154276190Y-164535628D01*
X154276190Y-164535628D02*
X154771429Y-164535628D01*
X140380714Y-155756104D02*
X140342618Y-155794200D01*
X140342618Y-155794200D02*
X140228333Y-155832295D01*
X140228333Y-155832295D02*
X140152142Y-155832295D01*
X140152142Y-155832295D02*
X140037856Y-155794200D01*
X140037856Y-155794200D02*
X139961666Y-155718009D01*
X139961666Y-155718009D02*
X139923571Y-155641819D01*
X139923571Y-155641819D02*
X139885475Y-155489438D01*
X139885475Y-155489438D02*
X139885475Y-155375152D01*
X139885475Y-155375152D02*
X139923571Y-155222771D01*
X139923571Y-155222771D02*
X139961666Y-155146580D01*
X139961666Y-155146580D02*
X140037856Y-155070390D01*
X140037856Y-155070390D02*
X140152142Y-155032295D01*
X140152142Y-155032295D02*
X140228333Y-155032295D01*
X140228333Y-155032295D02*
X140342618Y-155070390D01*
X140342618Y-155070390D02*
X140380714Y-155108485D01*
X140685475Y-155108485D02*
X140723571Y-155070390D01*
X140723571Y-155070390D02*
X140799761Y-155032295D01*
X140799761Y-155032295D02*
X140990237Y-155032295D01*
X140990237Y-155032295D02*
X141066428Y-155070390D01*
X141066428Y-155070390D02*
X141104523Y-155108485D01*
X141104523Y-155108485D02*
X141142618Y-155184676D01*
X141142618Y-155184676D02*
X141142618Y-155260866D01*
X141142618Y-155260866D02*
X141104523Y-155375152D01*
X141104523Y-155375152D02*
X140647380Y-155832295D01*
X140647380Y-155832295D02*
X141142618Y-155832295D01*
X141828333Y-155298961D02*
X141828333Y-155832295D01*
X141637857Y-154994200D02*
X141447380Y-155565628D01*
X141447380Y-155565628D02*
X141942619Y-155565628D01*
X140669048Y-165512295D02*
X140669048Y-164712295D01*
X141507143Y-165436104D02*
X141469047Y-165474200D01*
X141469047Y-165474200D02*
X141354762Y-165512295D01*
X141354762Y-165512295D02*
X141278571Y-165512295D01*
X141278571Y-165512295D02*
X141164285Y-165474200D01*
X141164285Y-165474200D02*
X141088095Y-165398009D01*
X141088095Y-165398009D02*
X141050000Y-165321819D01*
X141050000Y-165321819D02*
X141011904Y-165169438D01*
X141011904Y-165169438D02*
X141011904Y-165055152D01*
X141011904Y-165055152D02*
X141050000Y-164902771D01*
X141050000Y-164902771D02*
X141088095Y-164826580D01*
X141088095Y-164826580D02*
X141164285Y-164750390D01*
X141164285Y-164750390D02*
X141278571Y-164712295D01*
X141278571Y-164712295D02*
X141354762Y-164712295D01*
X141354762Y-164712295D02*
X141469047Y-164750390D01*
X141469047Y-164750390D02*
X141507143Y-164788485D01*
X142269047Y-165512295D02*
X141811904Y-165512295D01*
X142040476Y-165512295D02*
X142040476Y-164712295D01*
X142040476Y-164712295D02*
X141964285Y-164826580D01*
X141964285Y-164826580D02*
X141888095Y-164902771D01*
X141888095Y-164902771D02*
X141811904Y-164940866D01*
X138419048Y-150131342D02*
X138419048Y-150512295D01*
X138152381Y-149712295D02*
X138419048Y-150131342D01*
X138419048Y-150131342D02*
X138685714Y-149712295D01*
X139371428Y-150512295D02*
X138914285Y-150512295D01*
X139142857Y-150512295D02*
X139142857Y-149712295D01*
X139142857Y-149712295D02*
X139066666Y-149826580D01*
X139066666Y-149826580D02*
X138990476Y-149902771D01*
X138990476Y-149902771D02*
X138914285Y-149940866D01*
X138191667Y-162511104D02*
X138153571Y-162549200D01*
X138153571Y-162549200D02*
X138039286Y-162587295D01*
X138039286Y-162587295D02*
X137963095Y-162587295D01*
X137963095Y-162587295D02*
X137848809Y-162549200D01*
X137848809Y-162549200D02*
X137772619Y-162473009D01*
X137772619Y-162473009D02*
X137734524Y-162396819D01*
X137734524Y-162396819D02*
X137696428Y-162244438D01*
X137696428Y-162244438D02*
X137696428Y-162130152D01*
X137696428Y-162130152D02*
X137734524Y-161977771D01*
X137734524Y-161977771D02*
X137772619Y-161901580D01*
X137772619Y-161901580D02*
X137848809Y-161825390D01*
X137848809Y-161825390D02*
X137963095Y-161787295D01*
X137963095Y-161787295D02*
X138039286Y-161787295D01*
X138039286Y-161787295D02*
X138153571Y-161825390D01*
X138153571Y-161825390D02*
X138191667Y-161863485D01*
X138458333Y-161787295D02*
X138953571Y-161787295D01*
X138953571Y-161787295D02*
X138686905Y-162092057D01*
X138686905Y-162092057D02*
X138801190Y-162092057D01*
X138801190Y-162092057D02*
X138877381Y-162130152D01*
X138877381Y-162130152D02*
X138915476Y-162168247D01*
X138915476Y-162168247D02*
X138953571Y-162244438D01*
X138953571Y-162244438D02*
X138953571Y-162434914D01*
X138953571Y-162434914D02*
X138915476Y-162511104D01*
X138915476Y-162511104D02*
X138877381Y-162549200D01*
X138877381Y-162549200D02*
X138801190Y-162587295D01*
X138801190Y-162587295D02*
X138572619Y-162587295D01*
X138572619Y-162587295D02*
X138496428Y-162549200D01*
X138496428Y-162549200D02*
X138458333Y-162511104D01*
X148690476Y-151412295D02*
X148690476Y-152059914D01*
X148690476Y-152059914D02*
X148728571Y-152136104D01*
X148728571Y-152136104D02*
X148766666Y-152174200D01*
X148766666Y-152174200D02*
X148842857Y-152212295D01*
X148842857Y-152212295D02*
X148995238Y-152212295D01*
X148995238Y-152212295D02*
X149071428Y-152174200D01*
X149071428Y-152174200D02*
X149109523Y-152136104D01*
X149109523Y-152136104D02*
X149147619Y-152059914D01*
X149147619Y-152059914D02*
X149147619Y-151412295D01*
X149947618Y-152212295D02*
X149490475Y-152212295D01*
X149719047Y-152212295D02*
X149719047Y-151412295D01*
X149719047Y-151412295D02*
X149642856Y-151526580D01*
X149642856Y-151526580D02*
X149566666Y-151602771D01*
X149566666Y-151602771D02*
X149490475Y-151640866D01*
X134140476Y-154462295D02*
X134140476Y-155109914D01*
X134140476Y-155109914D02*
X134178571Y-155186104D01*
X134178571Y-155186104D02*
X134216666Y-155224200D01*
X134216666Y-155224200D02*
X134292857Y-155262295D01*
X134292857Y-155262295D02*
X134445238Y-155262295D01*
X134445238Y-155262295D02*
X134521428Y-155224200D01*
X134521428Y-155224200D02*
X134559523Y-155186104D01*
X134559523Y-155186104D02*
X134597619Y-155109914D01*
X134597619Y-155109914D02*
X134597619Y-154462295D01*
X135321428Y-154728961D02*
X135321428Y-155262295D01*
X135130952Y-154424200D02*
X134940475Y-154995628D01*
X134940475Y-154995628D02*
X135435714Y-154995628D01*
X145101666Y-168607540D02*
X144720714Y-168607540D01*
X144720714Y-168607540D02*
X144720714Y-167807540D01*
X145330237Y-167883730D02*
X145368333Y-167845635D01*
X145368333Y-167845635D02*
X145444523Y-167807540D01*
X145444523Y-167807540D02*
X145634999Y-167807540D01*
X145634999Y-167807540D02*
X145711190Y-167845635D01*
X145711190Y-167845635D02*
X145749285Y-167883730D01*
X145749285Y-167883730D02*
X145787380Y-167959921D01*
X145787380Y-167959921D02*
X145787380Y-168036111D01*
X145787380Y-168036111D02*
X145749285Y-168150397D01*
X145749285Y-168150397D02*
X145292142Y-168607540D01*
X145292142Y-168607540D02*
X145787380Y-168607540D01*
X139666667Y-162486104D02*
X139628571Y-162524200D01*
X139628571Y-162524200D02*
X139514286Y-162562295D01*
X139514286Y-162562295D02*
X139438095Y-162562295D01*
X139438095Y-162562295D02*
X139323809Y-162524200D01*
X139323809Y-162524200D02*
X139247619Y-162448009D01*
X139247619Y-162448009D02*
X139209524Y-162371819D01*
X139209524Y-162371819D02*
X139171428Y-162219438D01*
X139171428Y-162219438D02*
X139171428Y-162105152D01*
X139171428Y-162105152D02*
X139209524Y-161952771D01*
X139209524Y-161952771D02*
X139247619Y-161876580D01*
X139247619Y-161876580D02*
X139323809Y-161800390D01*
X139323809Y-161800390D02*
X139438095Y-161762295D01*
X139438095Y-161762295D02*
X139514286Y-161762295D01*
X139514286Y-161762295D02*
X139628571Y-161800390D01*
X139628571Y-161800390D02*
X139666667Y-161838485D01*
X140352381Y-162028961D02*
X140352381Y-162562295D01*
X140161905Y-161724200D02*
X139971428Y-162295628D01*
X139971428Y-162295628D02*
X140466667Y-162295628D01*
X137637295Y-166858333D02*
X137637295Y-167239285D01*
X137637295Y-167239285D02*
X136837295Y-167239285D01*
X137637295Y-166172619D02*
X137637295Y-166629762D01*
X137637295Y-166401190D02*
X136837295Y-166401190D01*
X136837295Y-166401190D02*
X136951580Y-166477381D01*
X136951580Y-166477381D02*
X137027771Y-166553571D01*
X137027771Y-166553571D02*
X137065866Y-166629762D01*
X139516667Y-161562295D02*
X139250000Y-161181342D01*
X139059524Y-161562295D02*
X139059524Y-160762295D01*
X139059524Y-160762295D02*
X139364286Y-160762295D01*
X139364286Y-160762295D02*
X139440476Y-160800390D01*
X139440476Y-160800390D02*
X139478571Y-160838485D01*
X139478571Y-160838485D02*
X139516667Y-160914676D01*
X139516667Y-160914676D02*
X139516667Y-161028961D01*
X139516667Y-161028961D02*
X139478571Y-161105152D01*
X139478571Y-161105152D02*
X139440476Y-161143247D01*
X139440476Y-161143247D02*
X139364286Y-161181342D01*
X139364286Y-161181342D02*
X139059524Y-161181342D01*
X140240476Y-160762295D02*
X139859524Y-160762295D01*
X139859524Y-160762295D02*
X139821428Y-161143247D01*
X139821428Y-161143247D02*
X139859524Y-161105152D01*
X139859524Y-161105152D02*
X139935714Y-161067057D01*
X139935714Y-161067057D02*
X140126190Y-161067057D01*
X140126190Y-161067057D02*
X140202381Y-161105152D01*
X140202381Y-161105152D02*
X140240476Y-161143247D01*
X140240476Y-161143247D02*
X140278571Y-161219438D01*
X140278571Y-161219438D02*
X140278571Y-161409914D01*
X140278571Y-161409914D02*
X140240476Y-161486104D01*
X140240476Y-161486104D02*
X140202381Y-161524200D01*
X140202381Y-161524200D02*
X140126190Y-161562295D01*
X140126190Y-161562295D02*
X139935714Y-161562295D01*
X139935714Y-161562295D02*
X139859524Y-161524200D01*
X139859524Y-161524200D02*
X139821428Y-161486104D01*
X141160714Y-170311104D02*
X141122618Y-170349200D01*
X141122618Y-170349200D02*
X141008333Y-170387295D01*
X141008333Y-170387295D02*
X140932142Y-170387295D01*
X140932142Y-170387295D02*
X140817856Y-170349200D01*
X140817856Y-170349200D02*
X140741666Y-170273009D01*
X140741666Y-170273009D02*
X140703571Y-170196819D01*
X140703571Y-170196819D02*
X140665475Y-170044438D01*
X140665475Y-170044438D02*
X140665475Y-169930152D01*
X140665475Y-169930152D02*
X140703571Y-169777771D01*
X140703571Y-169777771D02*
X140741666Y-169701580D01*
X140741666Y-169701580D02*
X140817856Y-169625390D01*
X140817856Y-169625390D02*
X140932142Y-169587295D01*
X140932142Y-169587295D02*
X141008333Y-169587295D01*
X141008333Y-169587295D02*
X141122618Y-169625390D01*
X141122618Y-169625390D02*
X141160714Y-169663485D01*
X141427380Y-169587295D02*
X141922618Y-169587295D01*
X141922618Y-169587295D02*
X141655952Y-169892057D01*
X141655952Y-169892057D02*
X141770237Y-169892057D01*
X141770237Y-169892057D02*
X141846428Y-169930152D01*
X141846428Y-169930152D02*
X141884523Y-169968247D01*
X141884523Y-169968247D02*
X141922618Y-170044438D01*
X141922618Y-170044438D02*
X141922618Y-170234914D01*
X141922618Y-170234914D02*
X141884523Y-170311104D01*
X141884523Y-170311104D02*
X141846428Y-170349200D01*
X141846428Y-170349200D02*
X141770237Y-170387295D01*
X141770237Y-170387295D02*
X141541666Y-170387295D01*
X141541666Y-170387295D02*
X141465475Y-170349200D01*
X141465475Y-170349200D02*
X141427380Y-170311104D01*
X142303571Y-170387295D02*
X142455952Y-170387295D01*
X142455952Y-170387295D02*
X142532142Y-170349200D01*
X142532142Y-170349200D02*
X142570238Y-170311104D01*
X142570238Y-170311104D02*
X142646428Y-170196819D01*
X142646428Y-170196819D02*
X142684523Y-170044438D01*
X142684523Y-170044438D02*
X142684523Y-169739676D01*
X142684523Y-169739676D02*
X142646428Y-169663485D01*
X142646428Y-169663485D02*
X142608333Y-169625390D01*
X142608333Y-169625390D02*
X142532142Y-169587295D01*
X142532142Y-169587295D02*
X142379761Y-169587295D01*
X142379761Y-169587295D02*
X142303571Y-169625390D01*
X142303571Y-169625390D02*
X142265476Y-169663485D01*
X142265476Y-169663485D02*
X142227380Y-169739676D01*
X142227380Y-169739676D02*
X142227380Y-169930152D01*
X142227380Y-169930152D02*
X142265476Y-170006342D01*
X142265476Y-170006342D02*
X142303571Y-170044438D01*
X142303571Y-170044438D02*
X142379761Y-170082533D01*
X142379761Y-170082533D02*
X142532142Y-170082533D01*
X142532142Y-170082533D02*
X142608333Y-170044438D01*
X142608333Y-170044438D02*
X142646428Y-170006342D01*
X142646428Y-170006342D02*
X142684523Y-169930152D01*
X132052976Y-166912295D02*
X132052976Y-167559914D01*
X132052976Y-167559914D02*
X132091071Y-167636104D01*
X132091071Y-167636104D02*
X132129166Y-167674200D01*
X132129166Y-167674200D02*
X132205357Y-167712295D01*
X132205357Y-167712295D02*
X132357738Y-167712295D01*
X132357738Y-167712295D02*
X132433928Y-167674200D01*
X132433928Y-167674200D02*
X132472023Y-167636104D01*
X132472023Y-167636104D02*
X132510119Y-167559914D01*
X132510119Y-167559914D02*
X132510119Y-166912295D01*
X133272023Y-166912295D02*
X132891071Y-166912295D01*
X132891071Y-166912295D02*
X132852975Y-167293247D01*
X132852975Y-167293247D02*
X132891071Y-167255152D01*
X132891071Y-167255152D02*
X132967261Y-167217057D01*
X132967261Y-167217057D02*
X133157737Y-167217057D01*
X133157737Y-167217057D02*
X133233928Y-167255152D01*
X133233928Y-167255152D02*
X133272023Y-167293247D01*
X133272023Y-167293247D02*
X133310118Y-167369438D01*
X133310118Y-167369438D02*
X133310118Y-167559914D01*
X133310118Y-167559914D02*
X133272023Y-167636104D01*
X133272023Y-167636104D02*
X133233928Y-167674200D01*
X133233928Y-167674200D02*
X133157737Y-167712295D01*
X133157737Y-167712295D02*
X132967261Y-167712295D01*
X132967261Y-167712295D02*
X132891071Y-167674200D01*
X132891071Y-167674200D02*
X132852975Y-167636104D01*
D11*
X140865000Y-153062164D02*
X140865000Y-153277836D01*
X141585000Y-153062164D02*
X141585000Y-153277836D01*
X139115000Y-157932836D02*
X139115000Y-157717164D01*
X139835000Y-157932836D02*
X139835000Y-157717164D01*
X136465000Y-163607836D02*
X136465000Y-163392164D01*
X137185000Y-163607836D02*
X137185000Y-163392164D01*
X150871359Y-153245000D02*
X151178641Y-153245000D01*
X150871359Y-154005000D02*
X151178641Y-154005000D01*
D12*
X131355000Y-149045000D02*
X133695000Y-149045000D01*
X131355000Y-161345000D02*
X131355000Y-149045000D01*
X133695000Y-149045000D02*
X133695000Y-161345000D01*
X133695000Y-161345000D02*
X131355000Y-161345000D01*
D13*
X134795000Y-150115000D02*
G75*
G02*
X134595000Y-150115000I-100000J0D01*
G01*
X134595000Y-150115000D02*
G75*
G02*
X134795000Y-150115000I100000J0D01*
G01*
D11*
X136715000Y-154482591D02*
X136715000Y-154266919D01*
X137435000Y-154482591D02*
X137435000Y-154266919D01*
D12*
X142725000Y-147505000D02*
X155025000Y-147505000D01*
X142725000Y-149845000D02*
X142725000Y-147505000D01*
X155025000Y-147505000D02*
X155025000Y-149845000D01*
X155025000Y-149845000D02*
X142725000Y-149845000D01*
D13*
X143895000Y-146505000D02*
G75*
G02*
X143695000Y-146505000I-100000J0D01*
G01*
X143695000Y-146505000D02*
G75*
G02*
X143895000Y-146505000I100000J0D01*
G01*
D14*
X144299501Y-166231499D02*
X145950501Y-166231499D01*
X145950501Y-163818499D02*
X144299501Y-163818499D01*
D11*
X135062164Y-159940000D02*
X135277836Y-159940000D01*
X135062164Y-160660000D02*
X135277836Y-160660000D01*
X151147164Y-158815000D02*
X151362836Y-158815000D01*
X151147164Y-159535000D02*
X151362836Y-159535000D01*
X138868641Y-153820000D02*
X138561359Y-153820000D01*
X138868641Y-154580000D02*
X138561359Y-154580000D01*
X142507836Y-160115000D02*
X142292164Y-160115000D01*
X142507836Y-160835000D02*
X142292164Y-160835000D01*
X141407836Y-158415000D02*
X141192164Y-158415000D01*
X141407836Y-159135000D02*
X141192164Y-159135000D01*
X151445000Y-155638641D02*
X151445000Y-155331359D01*
X152205000Y-155638641D02*
X152205000Y-155331359D01*
X133187164Y-161915000D02*
X133402836Y-161915000D01*
X133187164Y-162635000D02*
X133402836Y-162635000D01*
D14*
X150885573Y-167030839D02*
X150885573Y-167882260D01*
X150885573Y-169817740D02*
X150885573Y-170669158D01*
X154695573Y-167030839D02*
X154695573Y-167882260D01*
X154695573Y-169817740D02*
X154695573Y-170669158D01*
X154949573Y-167975995D02*
X154949573Y-167005754D01*
X154949573Y-170694244D02*
X154949573Y-169724005D01*
X155155567Y-172139300D02*
X164474573Y-172139300D01*
X164474573Y-165560700D02*
X155155567Y-165560700D01*
X164474573Y-172139300D02*
X164474573Y-165560700D01*
D11*
X140515000Y-160147164D02*
X140515000Y-160362836D01*
X141235000Y-160147164D02*
X141235000Y-160362836D01*
X145365000Y-162122164D02*
X145365000Y-162337836D01*
X146085000Y-162122164D02*
X146085000Y-162337836D01*
X135167164Y-153415000D02*
X135382836Y-153415000D01*
X135167164Y-154135000D02*
X135382836Y-154135000D01*
X140190000Y-163727836D02*
X140190000Y-163512164D01*
X140910000Y-163727836D02*
X140910000Y-163512164D01*
X146882836Y-166790000D02*
X146667164Y-166790000D01*
X146882836Y-167510000D02*
X146667164Y-167510000D01*
X138646359Y-164770000D02*
X138953641Y-164770000D01*
X138646359Y-165530000D02*
X138953641Y-165530000D01*
X146890000Y-165302836D02*
X146890000Y-165087164D01*
X147610000Y-165302836D02*
X147610000Y-165087164D01*
X144215000Y-162122164D02*
X144215000Y-162337836D01*
X144935000Y-162122164D02*
X144935000Y-162337836D01*
D12*
X153030000Y-151200000D02*
X155370000Y-151200000D01*
X153030000Y-163500000D02*
X153030000Y-151200000D01*
X155370000Y-151200000D02*
X155370000Y-163500000D01*
X155370000Y-163500000D02*
X153030000Y-163500000D01*
D13*
X156470000Y-152270000D02*
G75*
G02*
X156270000Y-152270000I-100000J0D01*
G01*
X156270000Y-152270000D02*
G75*
G02*
X156470000Y-152270000I100000J0D01*
G01*
D11*
X138802836Y-155090000D02*
X138587164Y-155090000D01*
X138802836Y-155810000D02*
X138587164Y-155810000D01*
D15*
X143275000Y-168325000D02*
G75*
G02*
X143025000Y-168325000I-125000J0D01*
G01*
X143025000Y-168325000D02*
G75*
G02*
X143275000Y-168325000I125000J0D01*
G01*
D12*
X138610000Y-152255000D02*
X138610000Y-151845000D01*
X140210000Y-151845000D02*
X140210000Y-152255000D01*
D13*
X137760000Y-151225000D02*
G75*
G02*
X137560000Y-151225000I-100000J0D01*
G01*
X137560000Y-151225000D02*
G75*
G02*
X137760000Y-151225000I100000J0D01*
G01*
D11*
X137940000Y-163727836D02*
X137940000Y-163512164D01*
X138660000Y-163727836D02*
X138660000Y-163512164D01*
X142865000Y-152565000D02*
X143415000Y-152565000D01*
X142865000Y-153115000D02*
X142865000Y-152565000D01*
X142865000Y-158785000D02*
X142865000Y-158235000D01*
X143415000Y-158785000D02*
X142865000Y-158785000D01*
X148535000Y-152565000D02*
X149085000Y-152565000D01*
X149085000Y-152565000D02*
X149085000Y-153115000D01*
X149085000Y-158235000D02*
X149085000Y-158785000D01*
X149085000Y-158785000D02*
X148535000Y-158785000D01*
X142335000Y-153475000D02*
X142005000Y-153715000D01*
X142005000Y-153235000D01*
X142335000Y-153475000D01*
G36*
X142335000Y-153475000D02*
G01*
X142005000Y-153715000D01*
X142005000Y-153235000D01*
X142335000Y-153475000D01*
G37*
X134190000Y-156632255D02*
X134240000Y-156632255D01*
X134190000Y-158452255D02*
X134190000Y-156632255D01*
X134240000Y-158452255D02*
X134190000Y-158452255D01*
X135360000Y-156632255D02*
X136140000Y-156632255D01*
X137260000Y-156632255D02*
X137310000Y-156632255D01*
X137310000Y-156632255D02*
X137310000Y-158452255D01*
X137310000Y-158452255D02*
X137260000Y-158452255D01*
X134240000Y-158992255D02*
X133910000Y-159232255D01*
X133910000Y-158752255D01*
X134240000Y-158992255D01*
G36*
X134240000Y-158992255D02*
G01*
X133910000Y-159232255D01*
X133910000Y-158752255D01*
X134240000Y-158992255D01*
G37*
X139090000Y-163727836D02*
X139090000Y-163512164D01*
X139810000Y-163727836D02*
X139810000Y-163512164D01*
X139095000Y-159681359D02*
X139095000Y-159988641D01*
X139855000Y-159681359D02*
X139855000Y-159988641D01*
X141762164Y-168490000D02*
X141977836Y-168490000D01*
X141762164Y-169210000D02*
X141977836Y-169210000D01*
X133115000Y-163365000D02*
X134935000Y-163365000D01*
X133115000Y-163415000D02*
X133115000Y-163365000D01*
X133115000Y-166485000D02*
X133115000Y-166435000D01*
X134935000Y-163365000D02*
X134935000Y-163415000D01*
X134935000Y-164535000D02*
X134935000Y-165315000D01*
X134935000Y-166435000D02*
X134935000Y-166485000D01*
X134935000Y-166485000D02*
X133115000Y-166485000D01*
X132575000Y-163415000D02*
X132335000Y-163085000D01*
X132815000Y-163085000D01*
X132575000Y-163415000D01*
G36*
X132575000Y-163415000D02*
G01*
X132335000Y-163085000D01*
X132815000Y-163085000D01*
X132575000Y-163415000D01*
G37*
M02*
