%TF.GenerationSoftware,KiCad,Pcbnew,10.0.4*%
%TF.CreationDate,2026-08-11T20:56:05+10:00*%
%TF.ProjectId,DW1000,44573130-3030-42e6-9b69-6361645f7063,rev?*%
%TF.SameCoordinates,Original*%
%TF.FileFunction,Drillmap*%
%TF.FilePolarity,Positive*%
%FSLAX45Y45*%
G04 Gerber Fmt 4.5, Leading zero omitted, Abs format (unit mm)*
G04 Created by KiCad (PCBNEW 10.0.4) date 2026-08-11 20:56:05*
%MOMM*%
%LPD*%
G01*
G04 APERTURE LIST*
%ADD10C,0.050000*%
%ADD11C,0.200000*%
%ADD12C,0.100000*%
G04 APERTURE END LIST*
D10*
X13100000Y-14822500D02*
G75*
G02*
X13200000Y-14729552I100000J-7320D01*
G01*
X13100000Y-17199288D02*
X13100000Y-14822500D01*
X13200000Y-14729822D02*
X15449288Y-14723210D01*
X13200000Y-17299290D02*
G75*
G02*
X13100000Y-17199288I0J100000D01*
G01*
X13200000Y-17300003D02*
X15449997Y-17300000D01*
X15449288Y-14723210D02*
G75*
G02*
X15549290Y-14823212I2J-100000D01*
G01*
X15549822Y-14822500D02*
X15549290Y-17199288D01*
X15550004Y-17199288D02*
G75*
G02*
X15449997Y-17300002I-100714J-2D01*
G01*
D11*
D12*
X13235000Y-15685475D02*
X13265000Y-15715475D01*
X13265000Y-15685475D02*
X13235000Y-15715475D01*
X13555000Y-15232975D02*
X13585000Y-15262975D01*
X13585000Y-15232975D02*
X13555000Y-15262975D01*
X13670000Y-16765000D02*
X13700000Y-16795000D01*
X13700000Y-16765000D02*
X13670000Y-16795000D01*
X13707500Y-16195000D02*
X13737500Y-16225000D01*
X13737500Y-16195000D02*
X13707500Y-16225000D01*
X13740000Y-15270475D02*
X13770000Y-15300475D01*
X13770000Y-15270475D02*
X13740000Y-15300475D01*
X13770000Y-15922500D02*
X13800000Y-15952500D01*
X13800000Y-15922500D02*
X13770000Y-15952500D01*
X13840000Y-15620000D02*
X13870000Y-15650000D01*
X13870000Y-15620000D02*
X13840000Y-15650000D01*
X13950000Y-16640000D02*
X13980000Y-16670000D01*
X13980000Y-16640000D02*
X13950000Y-16670000D01*
X13950000Y-16772500D02*
X13980000Y-16802500D01*
X13980000Y-16772500D02*
X13950000Y-16802500D01*
X13980000Y-15015000D02*
X14010000Y-15045000D01*
X14010000Y-15015000D02*
X13980000Y-15045000D01*
X14112500Y-15587500D02*
X14142500Y-15617500D01*
X14142500Y-15587500D02*
X14112500Y-15617500D01*
X14132500Y-15777500D02*
X14162500Y-15807500D01*
X14162500Y-15777500D02*
X14132500Y-15807500D01*
X14145000Y-14945000D02*
X14175000Y-14975000D01*
X14175000Y-14945000D02*
X14145000Y-14975000D01*
X14150000Y-15665000D02*
X14180000Y-15695000D01*
X14180000Y-15665000D02*
X14150000Y-15695000D01*
X14185000Y-16129000D02*
X14215000Y-16159000D01*
X14215000Y-16129000D02*
X14185000Y-16159000D01*
X14270000Y-16145000D02*
X14300000Y-16175000D01*
X14300000Y-16145000D02*
X14270000Y-16175000D01*
X14280000Y-16505000D02*
X14310000Y-16535000D01*
X14310000Y-16505000D02*
X14280000Y-16535000D01*
X14287500Y-17002500D02*
X14317500Y-17032500D01*
X14317500Y-17002500D02*
X14287500Y-17032500D01*
X14340000Y-16932500D02*
X14370000Y-16962500D01*
X14370000Y-16932500D02*
X14340000Y-16962500D01*
X14365000Y-16802500D02*
X14395000Y-16832500D01*
X14395000Y-16802500D02*
X14365000Y-16832500D01*
X14397500Y-16997500D02*
X14427500Y-17027500D01*
X14427500Y-16997500D02*
X14397500Y-17027500D01*
X14404800Y-15132500D02*
X14434800Y-15162500D01*
X14434800Y-15132500D02*
X14404800Y-15162500D01*
X14412500Y-15482500D02*
X14442500Y-15512500D01*
X14442500Y-15482500D02*
X14412500Y-15512500D01*
X14412500Y-15622500D02*
X14442500Y-15652500D01*
X14442500Y-15622500D02*
X14412500Y-15652500D01*
X14442500Y-16927500D02*
X14472500Y-16957500D01*
X14472500Y-16927500D02*
X14442500Y-16957500D01*
X14450000Y-16802500D02*
X14480000Y-16832500D01*
X14480000Y-16802500D02*
X14450000Y-16832500D01*
X14490000Y-17000000D02*
X14520000Y-17030000D01*
X14520000Y-17000000D02*
X14490000Y-17030000D01*
X14507500Y-15717500D02*
X14537500Y-15747500D01*
X14537500Y-15717500D02*
X14507500Y-15747500D01*
X14512500Y-15382500D02*
X14542500Y-15412500D01*
X14542500Y-15382500D02*
X14512500Y-15412500D01*
X14512500Y-15482500D02*
X14542500Y-15512500D01*
X14542500Y-15482500D02*
X14512500Y-15512500D01*
X14512500Y-15622500D02*
X14542500Y-15652500D01*
X14542500Y-15622500D02*
X14512500Y-15652500D01*
X14522500Y-15132500D02*
X14552500Y-15162500D01*
X14552500Y-15132500D02*
X14522500Y-15162500D01*
X14540000Y-16927500D02*
X14570000Y-16957500D01*
X14570000Y-16927500D02*
X14540000Y-16957500D01*
X14552500Y-16800000D02*
X14582500Y-16830000D01*
X14582500Y-16800000D02*
X14552500Y-16830000D01*
X14592500Y-17002500D02*
X14622500Y-17032500D01*
X14622500Y-17002500D02*
X14592500Y-17032500D01*
X14617500Y-15130500D02*
X14647500Y-15160500D01*
X14647500Y-15130500D02*
X14617500Y-15160500D01*
X14625000Y-15970000D02*
X14655000Y-16000000D01*
X14655000Y-15970000D02*
X14625000Y-16000000D01*
X14637500Y-16930000D02*
X14667500Y-16960000D01*
X14667500Y-16930000D02*
X14637500Y-16960000D01*
X14647500Y-16800000D02*
X14677500Y-16830000D01*
X14677500Y-16800000D02*
X14647500Y-16830000D01*
X14652500Y-15382500D02*
X14682500Y-15412500D01*
X14682500Y-15382500D02*
X14652500Y-15412500D01*
X14652500Y-15482500D02*
X14682500Y-15512500D01*
X14682500Y-15482500D02*
X14652500Y-15512500D01*
X14652500Y-15622500D02*
X14682500Y-15652500D01*
X14682500Y-15622500D02*
X14652500Y-15652500D01*
X14652500Y-15722500D02*
X14682500Y-15752500D01*
X14682500Y-15722500D02*
X14652500Y-15752500D01*
X14687500Y-17007500D02*
X14717500Y-17037500D01*
X14717500Y-17007500D02*
X14687500Y-17037500D01*
X14735000Y-15685475D02*
X14765000Y-15715475D01*
X14765000Y-15685475D02*
X14735000Y-15715475D01*
X14742500Y-16930000D02*
X14772500Y-16960000D01*
X14772500Y-16930000D02*
X14742500Y-16960000D01*
X14745000Y-16800000D02*
X14775000Y-16830000D01*
X14775000Y-16800000D02*
X14745000Y-16830000D01*
X14752500Y-15482500D02*
X14782500Y-15512500D01*
X14782500Y-15482500D02*
X14752500Y-15512500D01*
X14752500Y-15622500D02*
X14782500Y-15652500D01*
X14782500Y-15622500D02*
X14752500Y-15652500D01*
X14787500Y-17010000D02*
X14817500Y-17040000D01*
X14817500Y-17010000D02*
X14787500Y-17040000D01*
X14827500Y-16485000D02*
X14857500Y-16515000D01*
X14857500Y-16485000D02*
X14827500Y-16515000D01*
X14837500Y-16797500D02*
X14867500Y-16827500D01*
X14867500Y-16797500D02*
X14837500Y-16827500D01*
X14840000Y-16935000D02*
X14870000Y-16965000D01*
X14870000Y-16935000D02*
X14840000Y-16965000D01*
X14877500Y-16682500D02*
X14907500Y-16712500D01*
X14907500Y-16682500D02*
X14877500Y-16712500D01*
X14890000Y-17007500D02*
X14920000Y-17037500D01*
X14920000Y-17007500D02*
X14890000Y-17037500D01*
X14932500Y-16800000D02*
X14962500Y-16830000D01*
X14962500Y-16800000D02*
X14932500Y-16830000D01*
X14935000Y-16935000D02*
X14965000Y-16965000D01*
X14965000Y-16935000D02*
X14935000Y-16965000D01*
X14969800Y-15894500D02*
X14999800Y-15924500D01*
X14999800Y-15894500D02*
X14969800Y-15924500D01*
X14985000Y-15197500D02*
X15015000Y-15227500D01*
X15015000Y-15197500D02*
X14985000Y-15227500D01*
X15007500Y-15532500D02*
X15037500Y-15562500D01*
X15037500Y-15532500D02*
X15007500Y-15562500D01*
X15012500Y-15658800D02*
X15042500Y-15688800D01*
X15042500Y-15658800D02*
X15012500Y-15688800D01*
X15012500Y-15772500D02*
X15042500Y-15802500D01*
X15042500Y-15772500D02*
X15012500Y-15802500D01*
X15060000Y-16417500D02*
X15090000Y-16447500D01*
X15090000Y-16417500D02*
X15060000Y-16447500D01*
X15067500Y-15442500D02*
X15097500Y-15472500D01*
X15097500Y-15442500D02*
X15067500Y-15472500D01*
X15162500Y-16227500D02*
X15192500Y-16257500D01*
X15192500Y-16227500D02*
X15162500Y-16257500D01*
X15225000Y-16422500D02*
X15255000Y-16452500D01*
X15255000Y-16422500D02*
X15225000Y-16452500D01*
X13297000Y-15011500D02*
G75*
G02*
X13208000Y-15011500I-44500J0D01*
G01*
X13208000Y-15011500D02*
G75*
G02*
X13297000Y-15011500I44500J0D01*
G01*
X13297000Y-15265500D02*
G75*
G02*
X13208000Y-15265500I-44500J0D01*
G01*
X13208000Y-15265500D02*
G75*
G02*
X13297000Y-15265500I44500J0D01*
G01*
X13297000Y-15519500D02*
G75*
G02*
X13208000Y-15519500I-44500J0D01*
G01*
X13208000Y-15519500D02*
G75*
G02*
X13297000Y-15519500I44500J0D01*
G01*
X13297000Y-15773500D02*
G75*
G02*
X13208000Y-15773500I-44500J0D01*
G01*
X13208000Y-15773500D02*
G75*
G02*
X13297000Y-15773500I44500J0D01*
G01*
X13297000Y-16027500D02*
G75*
G02*
X13208000Y-16027500I-44500J0D01*
G01*
X13208000Y-16027500D02*
G75*
G02*
X13297000Y-16027500I44500J0D01*
G01*
X14424000Y-14867500D02*
G75*
G02*
X14335000Y-14867500I-44500J0D01*
G01*
X14335000Y-14867500D02*
G75*
G02*
X14424000Y-14867500I44500J0D01*
G01*
X14678000Y-14867500D02*
G75*
G02*
X14589000Y-14867500I-44500J0D01*
G01*
X14589000Y-14867500D02*
G75*
G02*
X14678000Y-14867500I44500J0D01*
G01*
X14932000Y-14867500D02*
G75*
G02*
X14843000Y-14867500I-44500J0D01*
G01*
X14843000Y-14867500D02*
G75*
G02*
X14932000Y-14867500I44500J0D01*
G01*
X15186000Y-14867500D02*
G75*
G02*
X15097000Y-14867500I-44500J0D01*
G01*
X15097000Y-14867500D02*
G75*
G02*
X15186000Y-14867500I44500J0D01*
G01*
X15440000Y-14867500D02*
G75*
G02*
X15351000Y-14867500I-44500J0D01*
G01*
X15351000Y-14867500D02*
G75*
G02*
X15440000Y-14867500I44500J0D01*
G01*
X15464500Y-15227000D02*
G75*
G02*
X15375500Y-15227000I-44500J0D01*
G01*
X15375500Y-15227000D02*
G75*
G02*
X15464500Y-15227000I44500J0D01*
G01*
X15464500Y-15481000D02*
G75*
G02*
X15375500Y-15481000I-44500J0D01*
G01*
X15375500Y-15481000D02*
G75*
G02*
X15464500Y-15481000I44500J0D01*
G01*
X15464500Y-15735000D02*
G75*
G02*
X15375500Y-15735000I-44500J0D01*
G01*
X15375500Y-15735000D02*
G75*
G02*
X15464500Y-15735000I44500J0D01*
G01*
X15464500Y-15989000D02*
G75*
G02*
X15375500Y-15989000I-44500J0D01*
G01*
X15375500Y-15989000D02*
G75*
G02*
X15464500Y-15989000I44500J0D01*
G01*
X15464500Y-16243000D02*
G75*
G02*
X15375500Y-16243000I-44500J0D01*
G01*
X15375500Y-16243000D02*
G75*
G02*
X15464500Y-16243000I44500J0D01*
G01*
D11*
X13358277Y-17613986D02*
X13358277Y-17413986D01*
X13358277Y-17413986D02*
X13405896Y-17413986D01*
X13405896Y-17413986D02*
X13434467Y-17423510D01*
X13434467Y-17423510D02*
X13453515Y-17442558D01*
X13453515Y-17442558D02*
X13463038Y-17461605D01*
X13463038Y-17461605D02*
X13472562Y-17499701D01*
X13472562Y-17499701D02*
X13472562Y-17528272D01*
X13472562Y-17528272D02*
X13463038Y-17566367D01*
X13463038Y-17566367D02*
X13453515Y-17585415D01*
X13453515Y-17585415D02*
X13434467Y-17604463D01*
X13434467Y-17604463D02*
X13405896Y-17613986D01*
X13405896Y-17613986D02*
X13358277Y-17613986D01*
X13558277Y-17613986D02*
X13558277Y-17480653D01*
X13558277Y-17518748D02*
X13567800Y-17499701D01*
X13567800Y-17499701D02*
X13577324Y-17490177D01*
X13577324Y-17490177D02*
X13596372Y-17480653D01*
X13596372Y-17480653D02*
X13615419Y-17480653D01*
X13682086Y-17613986D02*
X13682086Y-17480653D01*
X13682086Y-17413986D02*
X13672562Y-17423510D01*
X13672562Y-17423510D02*
X13682086Y-17433034D01*
X13682086Y-17433034D02*
X13691610Y-17423510D01*
X13691610Y-17423510D02*
X13682086Y-17413986D01*
X13682086Y-17413986D02*
X13682086Y-17433034D01*
X13805896Y-17613986D02*
X13786848Y-17604463D01*
X13786848Y-17604463D02*
X13777324Y-17585415D01*
X13777324Y-17585415D02*
X13777324Y-17413986D01*
X13910657Y-17613986D02*
X13891610Y-17604463D01*
X13891610Y-17604463D02*
X13882086Y-17585415D01*
X13882086Y-17585415D02*
X13882086Y-17413986D01*
X14139229Y-17613986D02*
X14139229Y-17413986D01*
X14139229Y-17413986D02*
X14205896Y-17556843D01*
X14205896Y-17556843D02*
X14272562Y-17413986D01*
X14272562Y-17413986D02*
X14272562Y-17613986D01*
X14453515Y-17613986D02*
X14453515Y-17509224D01*
X14453515Y-17509224D02*
X14443991Y-17490177D01*
X14443991Y-17490177D02*
X14424943Y-17480653D01*
X14424943Y-17480653D02*
X14386848Y-17480653D01*
X14386848Y-17480653D02*
X14367800Y-17490177D01*
X14453515Y-17604463D02*
X14434467Y-17613986D01*
X14434467Y-17613986D02*
X14386848Y-17613986D01*
X14386848Y-17613986D02*
X14367800Y-17604463D01*
X14367800Y-17604463D02*
X14358277Y-17585415D01*
X14358277Y-17585415D02*
X14358277Y-17566367D01*
X14358277Y-17566367D02*
X14367800Y-17547320D01*
X14367800Y-17547320D02*
X14386848Y-17537796D01*
X14386848Y-17537796D02*
X14434467Y-17537796D01*
X14434467Y-17537796D02*
X14453515Y-17528272D01*
X14548753Y-17480653D02*
X14548753Y-17680653D01*
X14548753Y-17490177D02*
X14567800Y-17480653D01*
X14567800Y-17480653D02*
X14605896Y-17480653D01*
X14605896Y-17480653D02*
X14624943Y-17490177D01*
X14624943Y-17490177D02*
X14634467Y-17499701D01*
X14634467Y-17499701D02*
X14643991Y-17518748D01*
X14643991Y-17518748D02*
X14643991Y-17575891D01*
X14643991Y-17575891D02*
X14634467Y-17594939D01*
X14634467Y-17594939D02*
X14624943Y-17604463D01*
X14624943Y-17604463D02*
X14605896Y-17613986D01*
X14605896Y-17613986D02*
X14567800Y-17613986D01*
X14567800Y-17613986D02*
X14548753Y-17604463D01*
X14729705Y-17594939D02*
X14739229Y-17604463D01*
X14739229Y-17604463D02*
X14729705Y-17613986D01*
X14729705Y-17613986D02*
X14720181Y-17604463D01*
X14720181Y-17604463D02*
X14729705Y-17594939D01*
X14729705Y-17594939D02*
X14729705Y-17613986D01*
X14729705Y-17490177D02*
X14739229Y-17499701D01*
X14739229Y-17499701D02*
X14729705Y-17509224D01*
X14729705Y-17509224D02*
X14720181Y-17499701D01*
X14720181Y-17499701D02*
X14729705Y-17490177D01*
X14729705Y-17490177D02*
X14729705Y-17509224D01*
D12*
X13067500Y-17927503D02*
X13097500Y-17957503D01*
X13097500Y-17927503D02*
X13067500Y-17957503D01*
D11*
X13396372Y-17833986D02*
X13415419Y-17833986D01*
X13415419Y-17833986D02*
X13434467Y-17843510D01*
X13434467Y-17843510D02*
X13443991Y-17853034D01*
X13443991Y-17853034D02*
X13453515Y-17872082D01*
X13453515Y-17872082D02*
X13463038Y-17910177D01*
X13463038Y-17910177D02*
X13463038Y-17957796D01*
X13463038Y-17957796D02*
X13453515Y-17995891D01*
X13453515Y-17995891D02*
X13443991Y-18014939D01*
X13443991Y-18014939D02*
X13434467Y-18024463D01*
X13434467Y-18024463D02*
X13415419Y-18033986D01*
X13415419Y-18033986D02*
X13396372Y-18033986D01*
X13396372Y-18033986D02*
X13377324Y-18024463D01*
X13377324Y-18024463D02*
X13367800Y-18014939D01*
X13367800Y-18014939D02*
X13358277Y-17995891D01*
X13358277Y-17995891D02*
X13348753Y-17957796D01*
X13348753Y-17957796D02*
X13348753Y-17910177D01*
X13348753Y-17910177D02*
X13358277Y-17872082D01*
X13358277Y-17872082D02*
X13367800Y-17853034D01*
X13367800Y-17853034D02*
X13377324Y-17843510D01*
X13377324Y-17843510D02*
X13396372Y-17833986D01*
X13548753Y-18014939D02*
X13558277Y-18024463D01*
X13558277Y-18024463D02*
X13548753Y-18033986D01*
X13548753Y-18033986D02*
X13539229Y-18024463D01*
X13539229Y-18024463D02*
X13548753Y-18014939D01*
X13548753Y-18014939D02*
X13548753Y-18033986D01*
X13624943Y-17833986D02*
X13748753Y-17833986D01*
X13748753Y-17833986D02*
X13682086Y-17910177D01*
X13682086Y-17910177D02*
X13710658Y-17910177D01*
X13710658Y-17910177D02*
X13729705Y-17919701D01*
X13729705Y-17919701D02*
X13739229Y-17929224D01*
X13739229Y-17929224D02*
X13748753Y-17948272D01*
X13748753Y-17948272D02*
X13748753Y-17995891D01*
X13748753Y-17995891D02*
X13739229Y-18014939D01*
X13739229Y-18014939D02*
X13729705Y-18024463D01*
X13729705Y-18024463D02*
X13710658Y-18033986D01*
X13710658Y-18033986D02*
X13653515Y-18033986D01*
X13653515Y-18033986D02*
X13634467Y-18024463D01*
X13634467Y-18024463D02*
X13624943Y-18014939D01*
X13872562Y-17833986D02*
X13891610Y-17833986D01*
X13891610Y-17833986D02*
X13910658Y-17843510D01*
X13910658Y-17843510D02*
X13920181Y-17853034D01*
X13920181Y-17853034D02*
X13929705Y-17872082D01*
X13929705Y-17872082D02*
X13939229Y-17910177D01*
X13939229Y-17910177D02*
X13939229Y-17957796D01*
X13939229Y-17957796D02*
X13929705Y-17995891D01*
X13929705Y-17995891D02*
X13920181Y-18014939D01*
X13920181Y-18014939D02*
X13910658Y-18024463D01*
X13910658Y-18024463D02*
X13891610Y-18033986D01*
X13891610Y-18033986D02*
X13872562Y-18033986D01*
X13872562Y-18033986D02*
X13853515Y-18024463D01*
X13853515Y-18024463D02*
X13843991Y-18014939D01*
X13843991Y-18014939D02*
X13834467Y-17995891D01*
X13834467Y-17995891D02*
X13824943Y-17957796D01*
X13824943Y-17957796D02*
X13824943Y-17910177D01*
X13824943Y-17910177D02*
X13834467Y-17872082D01*
X13834467Y-17872082D02*
X13843991Y-17853034D01*
X13843991Y-17853034D02*
X13853515Y-17843510D01*
X13853515Y-17843510D02*
X13872562Y-17833986D01*
X14063038Y-17833986D02*
X14082086Y-17833986D01*
X14082086Y-17833986D02*
X14101134Y-17843510D01*
X14101134Y-17843510D02*
X14110658Y-17853034D01*
X14110658Y-17853034D02*
X14120181Y-17872082D01*
X14120181Y-17872082D02*
X14129705Y-17910177D01*
X14129705Y-17910177D02*
X14129705Y-17957796D01*
X14129705Y-17957796D02*
X14120181Y-17995891D01*
X14120181Y-17995891D02*
X14110658Y-18014939D01*
X14110658Y-18014939D02*
X14101134Y-18024463D01*
X14101134Y-18024463D02*
X14082086Y-18033986D01*
X14082086Y-18033986D02*
X14063038Y-18033986D01*
X14063038Y-18033986D02*
X14043991Y-18024463D01*
X14043991Y-18024463D02*
X14034467Y-18014939D01*
X14034467Y-18014939D02*
X14024943Y-17995891D01*
X14024943Y-17995891D02*
X14015419Y-17957796D01*
X14015419Y-17957796D02*
X14015419Y-17910177D01*
X14015419Y-17910177D02*
X14024943Y-17872082D01*
X14024943Y-17872082D02*
X14034467Y-17853034D01*
X14034467Y-17853034D02*
X14043991Y-17843510D01*
X14043991Y-17843510D02*
X14063038Y-17833986D01*
X14215419Y-18033986D02*
X14215419Y-17900653D01*
X14215419Y-17919701D02*
X14224943Y-17910177D01*
X14224943Y-17910177D02*
X14243991Y-17900653D01*
X14243991Y-17900653D02*
X14272562Y-17900653D01*
X14272562Y-17900653D02*
X14291610Y-17910177D01*
X14291610Y-17910177D02*
X14301134Y-17929224D01*
X14301134Y-17929224D02*
X14301134Y-18033986D01*
X14301134Y-17929224D02*
X14310658Y-17910177D01*
X14310658Y-17910177D02*
X14329705Y-17900653D01*
X14329705Y-17900653D02*
X14358277Y-17900653D01*
X14358277Y-17900653D02*
X14377324Y-17910177D01*
X14377324Y-17910177D02*
X14386848Y-17929224D01*
X14386848Y-17929224D02*
X14386848Y-18033986D01*
X14482086Y-18033986D02*
X14482086Y-17900653D01*
X14482086Y-17919701D02*
X14491610Y-17910177D01*
X14491610Y-17910177D02*
X14510658Y-17900653D01*
X14510658Y-17900653D02*
X14539229Y-17900653D01*
X14539229Y-17900653D02*
X14558277Y-17910177D01*
X14558277Y-17910177D02*
X14567800Y-17929224D01*
X14567800Y-17929224D02*
X14567800Y-18033986D01*
X14567800Y-17929224D02*
X14577324Y-17910177D01*
X14577324Y-17910177D02*
X14596372Y-17900653D01*
X14596372Y-17900653D02*
X14624943Y-17900653D01*
X14624943Y-17900653D02*
X14643991Y-17910177D01*
X14643991Y-17910177D02*
X14653515Y-17929224D01*
X14653515Y-17929224D02*
X14653515Y-18033986D01*
X15043991Y-17824463D02*
X14872562Y-18081605D01*
X15301134Y-17833986D02*
X15320182Y-17833986D01*
X15320182Y-17833986D02*
X15339229Y-17843510D01*
X15339229Y-17843510D02*
X15348753Y-17853034D01*
X15348753Y-17853034D02*
X15358277Y-17872082D01*
X15358277Y-17872082D02*
X15367801Y-17910177D01*
X15367801Y-17910177D02*
X15367801Y-17957796D01*
X15367801Y-17957796D02*
X15358277Y-17995891D01*
X15358277Y-17995891D02*
X15348753Y-18014939D01*
X15348753Y-18014939D02*
X15339229Y-18024463D01*
X15339229Y-18024463D02*
X15320182Y-18033986D01*
X15320182Y-18033986D02*
X15301134Y-18033986D01*
X15301134Y-18033986D02*
X15282086Y-18024463D01*
X15282086Y-18024463D02*
X15272562Y-18014939D01*
X15272562Y-18014939D02*
X15263039Y-17995891D01*
X15263039Y-17995891D02*
X15253515Y-17957796D01*
X15253515Y-17957796D02*
X15253515Y-17910177D01*
X15253515Y-17910177D02*
X15263039Y-17872082D01*
X15263039Y-17872082D02*
X15272562Y-17853034D01*
X15272562Y-17853034D02*
X15282086Y-17843510D01*
X15282086Y-17843510D02*
X15301134Y-17833986D01*
X15453515Y-18014939D02*
X15463039Y-18024463D01*
X15463039Y-18024463D02*
X15453515Y-18033986D01*
X15453515Y-18033986D02*
X15443991Y-18024463D01*
X15443991Y-18024463D02*
X15453515Y-18014939D01*
X15453515Y-18014939D02*
X15453515Y-18033986D01*
X15586848Y-17833986D02*
X15605896Y-17833986D01*
X15605896Y-17833986D02*
X15624943Y-17843510D01*
X15624943Y-17843510D02*
X15634467Y-17853034D01*
X15634467Y-17853034D02*
X15643991Y-17872082D01*
X15643991Y-17872082D02*
X15653515Y-17910177D01*
X15653515Y-17910177D02*
X15653515Y-17957796D01*
X15653515Y-17957796D02*
X15643991Y-17995891D01*
X15643991Y-17995891D02*
X15634467Y-18014939D01*
X15634467Y-18014939D02*
X15624943Y-18024463D01*
X15624943Y-18024463D02*
X15605896Y-18033986D01*
X15605896Y-18033986D02*
X15586848Y-18033986D01*
X15586848Y-18033986D02*
X15567801Y-18024463D01*
X15567801Y-18024463D02*
X15558277Y-18014939D01*
X15558277Y-18014939D02*
X15548753Y-17995891D01*
X15548753Y-17995891D02*
X15539229Y-17957796D01*
X15539229Y-17957796D02*
X15539229Y-17910177D01*
X15539229Y-17910177D02*
X15548753Y-17872082D01*
X15548753Y-17872082D02*
X15558277Y-17853034D01*
X15558277Y-17853034D02*
X15567801Y-17843510D01*
X15567801Y-17843510D02*
X15586848Y-17833986D01*
X15843991Y-18033986D02*
X15729705Y-18033986D01*
X15786848Y-18033986D02*
X15786848Y-17833986D01*
X15786848Y-17833986D02*
X15767801Y-17862558D01*
X15767801Y-17862558D02*
X15748753Y-17881605D01*
X15748753Y-17881605D02*
X15729705Y-17891129D01*
X16034467Y-18033986D02*
X15920182Y-18033986D01*
X15977324Y-18033986D02*
X15977324Y-17833986D01*
X15977324Y-17833986D02*
X15958277Y-17862558D01*
X15958277Y-17862558D02*
X15939229Y-17881605D01*
X15939229Y-17881605D02*
X15920182Y-17891129D01*
X16148753Y-17919701D02*
X16129705Y-17910177D01*
X16129705Y-17910177D02*
X16120182Y-17900653D01*
X16120182Y-17900653D02*
X16110658Y-17881605D01*
X16110658Y-17881605D02*
X16110658Y-17872082D01*
X16110658Y-17872082D02*
X16120182Y-17853034D01*
X16120182Y-17853034D02*
X16129705Y-17843510D01*
X16129705Y-17843510D02*
X16148753Y-17833986D01*
X16148753Y-17833986D02*
X16186848Y-17833986D01*
X16186848Y-17833986D02*
X16205896Y-17843510D01*
X16205896Y-17843510D02*
X16215420Y-17853034D01*
X16215420Y-17853034D02*
X16224943Y-17872082D01*
X16224943Y-17872082D02*
X16224943Y-17881605D01*
X16224943Y-17881605D02*
X16215420Y-17900653D01*
X16215420Y-17900653D02*
X16205896Y-17910177D01*
X16205896Y-17910177D02*
X16186848Y-17919701D01*
X16186848Y-17919701D02*
X16148753Y-17919701D01*
X16148753Y-17919701D02*
X16129705Y-17929224D01*
X16129705Y-17929224D02*
X16120182Y-17938748D01*
X16120182Y-17938748D02*
X16110658Y-17957796D01*
X16110658Y-17957796D02*
X16110658Y-17995891D01*
X16110658Y-17995891D02*
X16120182Y-18014939D01*
X16120182Y-18014939D02*
X16129705Y-18024463D01*
X16129705Y-18024463D02*
X16148753Y-18033986D01*
X16148753Y-18033986D02*
X16186848Y-18033986D01*
X16186848Y-18033986D02*
X16205896Y-18024463D01*
X16205896Y-18024463D02*
X16215420Y-18014939D01*
X16215420Y-18014939D02*
X16224943Y-17995891D01*
X16224943Y-17995891D02*
X16224943Y-17957796D01*
X16224943Y-17957796D02*
X16215420Y-17938748D01*
X16215420Y-17938748D02*
X16205896Y-17929224D01*
X16205896Y-17929224D02*
X16186848Y-17919701D01*
X16301134Y-17833986D02*
X16301134Y-17872082D01*
X16377324Y-17833986D02*
X16377324Y-17872082D01*
X16672563Y-18110177D02*
X16663039Y-18100653D01*
X16663039Y-18100653D02*
X16643991Y-18072082D01*
X16643991Y-18072082D02*
X16634467Y-18053034D01*
X16634467Y-18053034D02*
X16624944Y-18024463D01*
X16624944Y-18024463D02*
X16615420Y-17976843D01*
X16615420Y-17976843D02*
X16615420Y-17938748D01*
X16615420Y-17938748D02*
X16624944Y-17891129D01*
X16624944Y-17891129D02*
X16634467Y-17862558D01*
X16634467Y-17862558D02*
X16643991Y-17843510D01*
X16643991Y-17843510D02*
X16663039Y-17814939D01*
X16663039Y-17814939D02*
X16672563Y-17805415D01*
X16834467Y-17833986D02*
X16796372Y-17833986D01*
X16796372Y-17833986D02*
X16777325Y-17843510D01*
X16777325Y-17843510D02*
X16767801Y-17853034D01*
X16767801Y-17853034D02*
X16748753Y-17881605D01*
X16748753Y-17881605D02*
X16739229Y-17919701D01*
X16739229Y-17919701D02*
X16739229Y-17995891D01*
X16739229Y-17995891D02*
X16748753Y-18014939D01*
X16748753Y-18014939D02*
X16758277Y-18024463D01*
X16758277Y-18024463D02*
X16777325Y-18033986D01*
X16777325Y-18033986D02*
X16815420Y-18033986D01*
X16815420Y-18033986D02*
X16834467Y-18024463D01*
X16834467Y-18024463D02*
X16843991Y-18014939D01*
X16843991Y-18014939D02*
X16853515Y-17995891D01*
X16853515Y-17995891D02*
X16853515Y-17948272D01*
X16853515Y-17948272D02*
X16843991Y-17929224D01*
X16843991Y-17929224D02*
X16834467Y-17919701D01*
X16834467Y-17919701D02*
X16815420Y-17910177D01*
X16815420Y-17910177D02*
X16777325Y-17910177D01*
X16777325Y-17910177D02*
X16758277Y-17919701D01*
X16758277Y-17919701D02*
X16748753Y-17929224D01*
X16748753Y-17929224D02*
X16739229Y-17948272D01*
X17024944Y-17833986D02*
X16986848Y-17833986D01*
X16986848Y-17833986D02*
X16967801Y-17843510D01*
X16967801Y-17843510D02*
X16958277Y-17853034D01*
X16958277Y-17853034D02*
X16939229Y-17881605D01*
X16939229Y-17881605D02*
X16929706Y-17919701D01*
X16929706Y-17919701D02*
X16929706Y-17995891D01*
X16929706Y-17995891D02*
X16939229Y-18014939D01*
X16939229Y-18014939D02*
X16948753Y-18024463D01*
X16948753Y-18024463D02*
X16967801Y-18033986D01*
X16967801Y-18033986D02*
X17005896Y-18033986D01*
X17005896Y-18033986D02*
X17024944Y-18024463D01*
X17024944Y-18024463D02*
X17034467Y-18014939D01*
X17034467Y-18014939D02*
X17043991Y-17995891D01*
X17043991Y-17995891D02*
X17043991Y-17948272D01*
X17043991Y-17948272D02*
X17034467Y-17929224D01*
X17034467Y-17929224D02*
X17024944Y-17919701D01*
X17024944Y-17919701D02*
X17005896Y-17910177D01*
X17005896Y-17910177D02*
X16967801Y-17910177D01*
X16967801Y-17910177D02*
X16948753Y-17919701D01*
X16948753Y-17919701D02*
X16939229Y-17929224D01*
X16939229Y-17929224D02*
X16929706Y-17948272D01*
X17282087Y-18033986D02*
X17282087Y-17833986D01*
X17367801Y-18033986D02*
X17367801Y-17929224D01*
X17367801Y-17929224D02*
X17358277Y-17910177D01*
X17358277Y-17910177D02*
X17339229Y-17900653D01*
X17339229Y-17900653D02*
X17310658Y-17900653D01*
X17310658Y-17900653D02*
X17291610Y-17910177D01*
X17291610Y-17910177D02*
X17282087Y-17919701D01*
X17491610Y-18033986D02*
X17472563Y-18024463D01*
X17472563Y-18024463D02*
X17463039Y-18014939D01*
X17463039Y-18014939D02*
X17453515Y-17995891D01*
X17453515Y-17995891D02*
X17453515Y-17938748D01*
X17453515Y-17938748D02*
X17463039Y-17919701D01*
X17463039Y-17919701D02*
X17472563Y-17910177D01*
X17472563Y-17910177D02*
X17491610Y-17900653D01*
X17491610Y-17900653D02*
X17520182Y-17900653D01*
X17520182Y-17900653D02*
X17539229Y-17910177D01*
X17539229Y-17910177D02*
X17548753Y-17919701D01*
X17548753Y-17919701D02*
X17558277Y-17938748D01*
X17558277Y-17938748D02*
X17558277Y-17995891D01*
X17558277Y-17995891D02*
X17548753Y-18014939D01*
X17548753Y-18014939D02*
X17539229Y-18024463D01*
X17539229Y-18024463D02*
X17520182Y-18033986D01*
X17520182Y-18033986D02*
X17491610Y-18033986D01*
X17672563Y-18033986D02*
X17653515Y-18024463D01*
X17653515Y-18024463D02*
X17643991Y-18005415D01*
X17643991Y-18005415D02*
X17643991Y-17833986D01*
X17824944Y-18024463D02*
X17805896Y-18033986D01*
X17805896Y-18033986D02*
X17767801Y-18033986D01*
X17767801Y-18033986D02*
X17748753Y-18024463D01*
X17748753Y-18024463D02*
X17739229Y-18005415D01*
X17739229Y-18005415D02*
X17739229Y-17929224D01*
X17739229Y-17929224D02*
X17748753Y-17910177D01*
X17748753Y-17910177D02*
X17767801Y-17900653D01*
X17767801Y-17900653D02*
X17805896Y-17900653D01*
X17805896Y-17900653D02*
X17824944Y-17910177D01*
X17824944Y-17910177D02*
X17834468Y-17929224D01*
X17834468Y-17929224D02*
X17834468Y-17948272D01*
X17834468Y-17948272D02*
X17739229Y-17967320D01*
X17910658Y-18024463D02*
X17929706Y-18033986D01*
X17929706Y-18033986D02*
X17967801Y-18033986D01*
X17967801Y-18033986D02*
X17986849Y-18024463D01*
X17986849Y-18024463D02*
X17996372Y-18005415D01*
X17996372Y-18005415D02*
X17996372Y-17995891D01*
X17996372Y-17995891D02*
X17986849Y-17976843D01*
X17986849Y-17976843D02*
X17967801Y-17967320D01*
X17967801Y-17967320D02*
X17939229Y-17967320D01*
X17939229Y-17967320D02*
X17920182Y-17957796D01*
X17920182Y-17957796D02*
X17910658Y-17938748D01*
X17910658Y-17938748D02*
X17910658Y-17929224D01*
X17910658Y-17929224D02*
X17920182Y-17910177D01*
X17920182Y-17910177D02*
X17939229Y-17900653D01*
X17939229Y-17900653D02*
X17967801Y-17900653D01*
X17967801Y-17900653D02*
X17986849Y-17910177D01*
X18063039Y-18110177D02*
X18072563Y-18100653D01*
X18072563Y-18100653D02*
X18091610Y-18072082D01*
X18091610Y-18072082D02*
X18101134Y-18053034D01*
X18101134Y-18053034D02*
X18110658Y-18024463D01*
X18110658Y-18024463D02*
X18120182Y-17976843D01*
X18120182Y-17976843D02*
X18120182Y-17938748D01*
X18120182Y-17938748D02*
X18110658Y-17891129D01*
X18110658Y-17891129D02*
X18101134Y-17862558D01*
X18101134Y-17862558D02*
X18091610Y-17843510D01*
X18091610Y-17843510D02*
X18072563Y-17814939D01*
X18072563Y-17814939D02*
X18063039Y-17805415D01*
D12*
X13097500Y-18206503D02*
G75*
G02*
X13008500Y-18206503I-44500J0D01*
G01*
X13008500Y-18206503D02*
G75*
G02*
X13097500Y-18206503I44500J0D01*
G01*
D11*
X13396372Y-18097986D02*
X13415419Y-18097986D01*
X13415419Y-18097986D02*
X13434467Y-18107510D01*
X13434467Y-18107510D02*
X13443991Y-18117034D01*
X13443991Y-18117034D02*
X13453515Y-18136082D01*
X13453515Y-18136082D02*
X13463038Y-18174177D01*
X13463038Y-18174177D02*
X13463038Y-18221796D01*
X13463038Y-18221796D02*
X13453515Y-18259891D01*
X13453515Y-18259891D02*
X13443991Y-18278939D01*
X13443991Y-18278939D02*
X13434467Y-18288463D01*
X13434467Y-18288463D02*
X13415419Y-18297986D01*
X13415419Y-18297986D02*
X13396372Y-18297986D01*
X13396372Y-18297986D02*
X13377324Y-18288463D01*
X13377324Y-18288463D02*
X13367800Y-18278939D01*
X13367800Y-18278939D02*
X13358277Y-18259891D01*
X13358277Y-18259891D02*
X13348753Y-18221796D01*
X13348753Y-18221796D02*
X13348753Y-18174177D01*
X13348753Y-18174177D02*
X13358277Y-18136082D01*
X13358277Y-18136082D02*
X13367800Y-18117034D01*
X13367800Y-18117034D02*
X13377324Y-18107510D01*
X13377324Y-18107510D02*
X13396372Y-18097986D01*
X13548753Y-18278939D02*
X13558277Y-18288463D01*
X13558277Y-18288463D02*
X13548753Y-18297986D01*
X13548753Y-18297986D02*
X13539229Y-18288463D01*
X13539229Y-18288463D02*
X13548753Y-18278939D01*
X13548753Y-18278939D02*
X13548753Y-18297986D01*
X13672562Y-18183701D02*
X13653515Y-18174177D01*
X13653515Y-18174177D02*
X13643991Y-18164653D01*
X13643991Y-18164653D02*
X13634467Y-18145605D01*
X13634467Y-18145605D02*
X13634467Y-18136082D01*
X13634467Y-18136082D02*
X13643991Y-18117034D01*
X13643991Y-18117034D02*
X13653515Y-18107510D01*
X13653515Y-18107510D02*
X13672562Y-18097986D01*
X13672562Y-18097986D02*
X13710658Y-18097986D01*
X13710658Y-18097986D02*
X13729705Y-18107510D01*
X13729705Y-18107510D02*
X13739229Y-18117034D01*
X13739229Y-18117034D02*
X13748753Y-18136082D01*
X13748753Y-18136082D02*
X13748753Y-18145605D01*
X13748753Y-18145605D02*
X13739229Y-18164653D01*
X13739229Y-18164653D02*
X13729705Y-18174177D01*
X13729705Y-18174177D02*
X13710658Y-18183701D01*
X13710658Y-18183701D02*
X13672562Y-18183701D01*
X13672562Y-18183701D02*
X13653515Y-18193224D01*
X13653515Y-18193224D02*
X13643991Y-18202748D01*
X13643991Y-18202748D02*
X13634467Y-18221796D01*
X13634467Y-18221796D02*
X13634467Y-18259891D01*
X13634467Y-18259891D02*
X13643991Y-18278939D01*
X13643991Y-18278939D02*
X13653515Y-18288463D01*
X13653515Y-18288463D02*
X13672562Y-18297986D01*
X13672562Y-18297986D02*
X13710658Y-18297986D01*
X13710658Y-18297986D02*
X13729705Y-18288463D01*
X13729705Y-18288463D02*
X13739229Y-18278939D01*
X13739229Y-18278939D02*
X13748753Y-18259891D01*
X13748753Y-18259891D02*
X13748753Y-18221796D01*
X13748753Y-18221796D02*
X13739229Y-18202748D01*
X13739229Y-18202748D02*
X13729705Y-18193224D01*
X13729705Y-18193224D02*
X13710658Y-18183701D01*
X13843991Y-18297986D02*
X13882086Y-18297986D01*
X13882086Y-18297986D02*
X13901134Y-18288463D01*
X13901134Y-18288463D02*
X13910658Y-18278939D01*
X13910658Y-18278939D02*
X13929705Y-18250367D01*
X13929705Y-18250367D02*
X13939229Y-18212272D01*
X13939229Y-18212272D02*
X13939229Y-18136082D01*
X13939229Y-18136082D02*
X13929705Y-18117034D01*
X13929705Y-18117034D02*
X13920181Y-18107510D01*
X13920181Y-18107510D02*
X13901134Y-18097986D01*
X13901134Y-18097986D02*
X13863038Y-18097986D01*
X13863038Y-18097986D02*
X13843991Y-18107510D01*
X13843991Y-18107510D02*
X13834467Y-18117034D01*
X13834467Y-18117034D02*
X13824943Y-18136082D01*
X13824943Y-18136082D02*
X13824943Y-18183701D01*
X13824943Y-18183701D02*
X13834467Y-18202748D01*
X13834467Y-18202748D02*
X13843991Y-18212272D01*
X13843991Y-18212272D02*
X13863038Y-18221796D01*
X13863038Y-18221796D02*
X13901134Y-18221796D01*
X13901134Y-18221796D02*
X13920181Y-18212272D01*
X13920181Y-18212272D02*
X13929705Y-18202748D01*
X13929705Y-18202748D02*
X13939229Y-18183701D01*
X14063038Y-18097986D02*
X14082086Y-18097986D01*
X14082086Y-18097986D02*
X14101134Y-18107510D01*
X14101134Y-18107510D02*
X14110658Y-18117034D01*
X14110658Y-18117034D02*
X14120181Y-18136082D01*
X14120181Y-18136082D02*
X14129705Y-18174177D01*
X14129705Y-18174177D02*
X14129705Y-18221796D01*
X14129705Y-18221796D02*
X14120181Y-18259891D01*
X14120181Y-18259891D02*
X14110658Y-18278939D01*
X14110658Y-18278939D02*
X14101134Y-18288463D01*
X14101134Y-18288463D02*
X14082086Y-18297986D01*
X14082086Y-18297986D02*
X14063038Y-18297986D01*
X14063038Y-18297986D02*
X14043991Y-18288463D01*
X14043991Y-18288463D02*
X14034467Y-18278939D01*
X14034467Y-18278939D02*
X14024943Y-18259891D01*
X14024943Y-18259891D02*
X14015419Y-18221796D01*
X14015419Y-18221796D02*
X14015419Y-18174177D01*
X14015419Y-18174177D02*
X14024943Y-18136082D01*
X14024943Y-18136082D02*
X14034467Y-18117034D01*
X14034467Y-18117034D02*
X14043991Y-18107510D01*
X14043991Y-18107510D02*
X14063038Y-18097986D01*
X14215419Y-18297986D02*
X14215419Y-18164653D01*
X14215419Y-18183701D02*
X14224943Y-18174177D01*
X14224943Y-18174177D02*
X14243991Y-18164653D01*
X14243991Y-18164653D02*
X14272562Y-18164653D01*
X14272562Y-18164653D02*
X14291610Y-18174177D01*
X14291610Y-18174177D02*
X14301134Y-18193224D01*
X14301134Y-18193224D02*
X14301134Y-18297986D01*
X14301134Y-18193224D02*
X14310658Y-18174177D01*
X14310658Y-18174177D02*
X14329705Y-18164653D01*
X14329705Y-18164653D02*
X14358277Y-18164653D01*
X14358277Y-18164653D02*
X14377324Y-18174177D01*
X14377324Y-18174177D02*
X14386848Y-18193224D01*
X14386848Y-18193224D02*
X14386848Y-18297986D01*
X14482086Y-18297986D02*
X14482086Y-18164653D01*
X14482086Y-18183701D02*
X14491610Y-18174177D01*
X14491610Y-18174177D02*
X14510658Y-18164653D01*
X14510658Y-18164653D02*
X14539229Y-18164653D01*
X14539229Y-18164653D02*
X14558277Y-18174177D01*
X14558277Y-18174177D02*
X14567800Y-18193224D01*
X14567800Y-18193224D02*
X14567800Y-18297986D01*
X14567800Y-18193224D02*
X14577324Y-18174177D01*
X14577324Y-18174177D02*
X14596372Y-18164653D01*
X14596372Y-18164653D02*
X14624943Y-18164653D01*
X14624943Y-18164653D02*
X14643991Y-18174177D01*
X14643991Y-18174177D02*
X14653515Y-18193224D01*
X14653515Y-18193224D02*
X14653515Y-18297986D01*
X15043991Y-18088463D02*
X14872562Y-18345605D01*
X15301134Y-18097986D02*
X15320182Y-18097986D01*
X15320182Y-18097986D02*
X15339229Y-18107510D01*
X15339229Y-18107510D02*
X15348753Y-18117034D01*
X15348753Y-18117034D02*
X15358277Y-18136082D01*
X15358277Y-18136082D02*
X15367801Y-18174177D01*
X15367801Y-18174177D02*
X15367801Y-18221796D01*
X15367801Y-18221796D02*
X15358277Y-18259891D01*
X15358277Y-18259891D02*
X15348753Y-18278939D01*
X15348753Y-18278939D02*
X15339229Y-18288463D01*
X15339229Y-18288463D02*
X15320182Y-18297986D01*
X15320182Y-18297986D02*
X15301134Y-18297986D01*
X15301134Y-18297986D02*
X15282086Y-18288463D01*
X15282086Y-18288463D02*
X15272562Y-18278939D01*
X15272562Y-18278939D02*
X15263039Y-18259891D01*
X15263039Y-18259891D02*
X15253515Y-18221796D01*
X15253515Y-18221796D02*
X15253515Y-18174177D01*
X15253515Y-18174177D02*
X15263039Y-18136082D01*
X15263039Y-18136082D02*
X15272562Y-18117034D01*
X15272562Y-18117034D02*
X15282086Y-18107510D01*
X15282086Y-18107510D02*
X15301134Y-18097986D01*
X15453515Y-18278939D02*
X15463039Y-18288463D01*
X15463039Y-18288463D02*
X15453515Y-18297986D01*
X15453515Y-18297986D02*
X15443991Y-18288463D01*
X15443991Y-18288463D02*
X15453515Y-18278939D01*
X15453515Y-18278939D02*
X15453515Y-18297986D01*
X15586848Y-18097986D02*
X15605896Y-18097986D01*
X15605896Y-18097986D02*
X15624943Y-18107510D01*
X15624943Y-18107510D02*
X15634467Y-18117034D01*
X15634467Y-18117034D02*
X15643991Y-18136082D01*
X15643991Y-18136082D02*
X15653515Y-18174177D01*
X15653515Y-18174177D02*
X15653515Y-18221796D01*
X15653515Y-18221796D02*
X15643991Y-18259891D01*
X15643991Y-18259891D02*
X15634467Y-18278939D01*
X15634467Y-18278939D02*
X15624943Y-18288463D01*
X15624943Y-18288463D02*
X15605896Y-18297986D01*
X15605896Y-18297986D02*
X15586848Y-18297986D01*
X15586848Y-18297986D02*
X15567801Y-18288463D01*
X15567801Y-18288463D02*
X15558277Y-18278939D01*
X15558277Y-18278939D02*
X15548753Y-18259891D01*
X15548753Y-18259891D02*
X15539229Y-18221796D01*
X15539229Y-18221796D02*
X15539229Y-18174177D01*
X15539229Y-18174177D02*
X15548753Y-18136082D01*
X15548753Y-18136082D02*
X15558277Y-18117034D01*
X15558277Y-18117034D02*
X15567801Y-18107510D01*
X15567801Y-18107510D02*
X15586848Y-18097986D01*
X15720182Y-18097986D02*
X15843991Y-18097986D01*
X15843991Y-18097986D02*
X15777324Y-18174177D01*
X15777324Y-18174177D02*
X15805896Y-18174177D01*
X15805896Y-18174177D02*
X15824943Y-18183701D01*
X15824943Y-18183701D02*
X15834467Y-18193224D01*
X15834467Y-18193224D02*
X15843991Y-18212272D01*
X15843991Y-18212272D02*
X15843991Y-18259891D01*
X15843991Y-18259891D02*
X15834467Y-18278939D01*
X15834467Y-18278939D02*
X15824943Y-18288463D01*
X15824943Y-18288463D02*
X15805896Y-18297986D01*
X15805896Y-18297986D02*
X15748753Y-18297986D01*
X15748753Y-18297986D02*
X15729705Y-18288463D01*
X15729705Y-18288463D02*
X15720182Y-18278939D01*
X16024943Y-18097986D02*
X15929705Y-18097986D01*
X15929705Y-18097986D02*
X15920182Y-18193224D01*
X15920182Y-18193224D02*
X15929705Y-18183701D01*
X15929705Y-18183701D02*
X15948753Y-18174177D01*
X15948753Y-18174177D02*
X15996372Y-18174177D01*
X15996372Y-18174177D02*
X16015420Y-18183701D01*
X16015420Y-18183701D02*
X16024943Y-18193224D01*
X16024943Y-18193224D02*
X16034467Y-18212272D01*
X16034467Y-18212272D02*
X16034467Y-18259891D01*
X16034467Y-18259891D02*
X16024943Y-18278939D01*
X16024943Y-18278939D02*
X16015420Y-18288463D01*
X16015420Y-18288463D02*
X15996372Y-18297986D01*
X15996372Y-18297986D02*
X15948753Y-18297986D01*
X15948753Y-18297986D02*
X15929705Y-18288463D01*
X15929705Y-18288463D02*
X15920182Y-18278939D01*
X16158277Y-18097986D02*
X16177324Y-18097986D01*
X16177324Y-18097986D02*
X16196372Y-18107510D01*
X16196372Y-18107510D02*
X16205896Y-18117034D01*
X16205896Y-18117034D02*
X16215420Y-18136082D01*
X16215420Y-18136082D02*
X16224943Y-18174177D01*
X16224943Y-18174177D02*
X16224943Y-18221796D01*
X16224943Y-18221796D02*
X16215420Y-18259891D01*
X16215420Y-18259891D02*
X16205896Y-18278939D01*
X16205896Y-18278939D02*
X16196372Y-18288463D01*
X16196372Y-18288463D02*
X16177324Y-18297986D01*
X16177324Y-18297986D02*
X16158277Y-18297986D01*
X16158277Y-18297986D02*
X16139229Y-18288463D01*
X16139229Y-18288463D02*
X16129705Y-18278939D01*
X16129705Y-18278939D02*
X16120182Y-18259891D01*
X16120182Y-18259891D02*
X16110658Y-18221796D01*
X16110658Y-18221796D02*
X16110658Y-18174177D01*
X16110658Y-18174177D02*
X16120182Y-18136082D01*
X16120182Y-18136082D02*
X16129705Y-18117034D01*
X16129705Y-18117034D02*
X16139229Y-18107510D01*
X16139229Y-18107510D02*
X16158277Y-18097986D01*
X16301134Y-18097986D02*
X16301134Y-18136082D01*
X16377324Y-18097986D02*
X16377324Y-18136082D01*
X16672563Y-18374177D02*
X16663039Y-18364653D01*
X16663039Y-18364653D02*
X16643991Y-18336082D01*
X16643991Y-18336082D02*
X16634467Y-18317034D01*
X16634467Y-18317034D02*
X16624944Y-18288463D01*
X16624944Y-18288463D02*
X16615420Y-18240843D01*
X16615420Y-18240843D02*
X16615420Y-18202748D01*
X16615420Y-18202748D02*
X16624944Y-18155129D01*
X16624944Y-18155129D02*
X16634467Y-18126558D01*
X16634467Y-18126558D02*
X16643991Y-18107510D01*
X16643991Y-18107510D02*
X16663039Y-18078939D01*
X16663039Y-18078939D02*
X16672563Y-18069415D01*
X16853515Y-18297986D02*
X16739229Y-18297986D01*
X16796372Y-18297986D02*
X16796372Y-18097986D01*
X16796372Y-18097986D02*
X16777325Y-18126558D01*
X16777325Y-18126558D02*
X16758277Y-18145605D01*
X16758277Y-18145605D02*
X16739229Y-18155129D01*
X17034467Y-18097986D02*
X16939229Y-18097986D01*
X16939229Y-18097986D02*
X16929706Y-18193224D01*
X16929706Y-18193224D02*
X16939229Y-18183701D01*
X16939229Y-18183701D02*
X16958277Y-18174177D01*
X16958277Y-18174177D02*
X17005896Y-18174177D01*
X17005896Y-18174177D02*
X17024944Y-18183701D01*
X17024944Y-18183701D02*
X17034467Y-18193224D01*
X17034467Y-18193224D02*
X17043991Y-18212272D01*
X17043991Y-18212272D02*
X17043991Y-18259891D01*
X17043991Y-18259891D02*
X17034467Y-18278939D01*
X17034467Y-18278939D02*
X17024944Y-18288463D01*
X17024944Y-18288463D02*
X17005896Y-18297986D01*
X17005896Y-18297986D02*
X16958277Y-18297986D01*
X16958277Y-18297986D02*
X16939229Y-18288463D01*
X16939229Y-18288463D02*
X16929706Y-18278939D01*
X17282087Y-18297986D02*
X17282087Y-18097986D01*
X17367801Y-18297986D02*
X17367801Y-18193224D01*
X17367801Y-18193224D02*
X17358277Y-18174177D01*
X17358277Y-18174177D02*
X17339229Y-18164653D01*
X17339229Y-18164653D02*
X17310658Y-18164653D01*
X17310658Y-18164653D02*
X17291610Y-18174177D01*
X17291610Y-18174177D02*
X17282087Y-18183701D01*
X17491610Y-18297986D02*
X17472563Y-18288463D01*
X17472563Y-18288463D02*
X17463039Y-18278939D01*
X17463039Y-18278939D02*
X17453515Y-18259891D01*
X17453515Y-18259891D02*
X17453515Y-18202748D01*
X17453515Y-18202748D02*
X17463039Y-18183701D01*
X17463039Y-18183701D02*
X17472563Y-18174177D01*
X17472563Y-18174177D02*
X17491610Y-18164653D01*
X17491610Y-18164653D02*
X17520182Y-18164653D01*
X17520182Y-18164653D02*
X17539229Y-18174177D01*
X17539229Y-18174177D02*
X17548753Y-18183701D01*
X17548753Y-18183701D02*
X17558277Y-18202748D01*
X17558277Y-18202748D02*
X17558277Y-18259891D01*
X17558277Y-18259891D02*
X17548753Y-18278939D01*
X17548753Y-18278939D02*
X17539229Y-18288463D01*
X17539229Y-18288463D02*
X17520182Y-18297986D01*
X17520182Y-18297986D02*
X17491610Y-18297986D01*
X17672563Y-18297986D02*
X17653515Y-18288463D01*
X17653515Y-18288463D02*
X17643991Y-18269415D01*
X17643991Y-18269415D02*
X17643991Y-18097986D01*
X17824944Y-18288463D02*
X17805896Y-18297986D01*
X17805896Y-18297986D02*
X17767801Y-18297986D01*
X17767801Y-18297986D02*
X17748753Y-18288463D01*
X17748753Y-18288463D02*
X17739229Y-18269415D01*
X17739229Y-18269415D02*
X17739229Y-18193224D01*
X17739229Y-18193224D02*
X17748753Y-18174177D01*
X17748753Y-18174177D02*
X17767801Y-18164653D01*
X17767801Y-18164653D02*
X17805896Y-18164653D01*
X17805896Y-18164653D02*
X17824944Y-18174177D01*
X17824944Y-18174177D02*
X17834468Y-18193224D01*
X17834468Y-18193224D02*
X17834468Y-18212272D01*
X17834468Y-18212272D02*
X17739229Y-18231320D01*
X17910658Y-18288463D02*
X17929706Y-18297986D01*
X17929706Y-18297986D02*
X17967801Y-18297986D01*
X17967801Y-18297986D02*
X17986849Y-18288463D01*
X17986849Y-18288463D02*
X17996372Y-18269415D01*
X17996372Y-18269415D02*
X17996372Y-18259891D01*
X17996372Y-18259891D02*
X17986849Y-18240843D01*
X17986849Y-18240843D02*
X17967801Y-18231320D01*
X17967801Y-18231320D02*
X17939229Y-18231320D01*
X17939229Y-18231320D02*
X17920182Y-18221796D01*
X17920182Y-18221796D02*
X17910658Y-18202748D01*
X17910658Y-18202748D02*
X17910658Y-18193224D01*
X17910658Y-18193224D02*
X17920182Y-18174177D01*
X17920182Y-18174177D02*
X17939229Y-18164653D01*
X17939229Y-18164653D02*
X17967801Y-18164653D01*
X17967801Y-18164653D02*
X17986849Y-18174177D01*
X18063039Y-18374177D02*
X18072563Y-18364653D01*
X18072563Y-18364653D02*
X18091610Y-18336082D01*
X18091610Y-18336082D02*
X18101134Y-18317034D01*
X18101134Y-18317034D02*
X18110658Y-18288463D01*
X18110658Y-18288463D02*
X18120182Y-18240843D01*
X18120182Y-18240843D02*
X18120182Y-18202748D01*
X18120182Y-18202748D02*
X18110658Y-18155129D01*
X18110658Y-18155129D02*
X18101134Y-18126558D01*
X18101134Y-18126558D02*
X18091610Y-18107510D01*
X18091610Y-18107510D02*
X18072563Y-18078939D01*
X18072563Y-18078939D02*
X18063039Y-18069415D01*
M02*
