G04 #@! TF.GenerationSoftware,KiCad,Pcbnew,10.0.4*
G04 #@! TF.CreationDate,2026-08-11T20:57:55+10:00*
G04 #@! TF.ProjectId,DW1000,44573130-3030-42e6-9b69-6361645f7063,rev?*
G04 #@! TF.SameCoordinates,Original*
G04 #@! TF.FileFunction,Paste,Top*
G04 #@! TF.FilePolarity,Positive*
%FSLAX46Y46*%
G04 Gerber Fmt 4.6, Leading zero omitted, Abs format (unit mm)*
G04 Created by KiCad (PCBNEW 10.0.4) date 2026-08-11 20:57:55*
%MOMM*%
%LPD*%
G01*
G04 APERTURE LIST*
G04 Aperture macros list*
%AMRoundRect*
0 Rectangle with rounded corners*
0 $1 Rounding radius*
0 $2 $3 $4 $5 $6 $7 $8 $9 X,Y pos of 4 corners*
0 Add a 4 corners polygon primitive as box body*
4,1,4,$2,$3,$4,$5,$6,$7,$8,$9,$2,$3,0*
0 Add four circle primitives for the rounded corners*
1,1,$1+$1,$2,$3*
1,1,$1+$1,$4,$5*
1,1,$1+$1,$6,$7*
1,1,$1+$1,$8,$9*
0 Add four rect primitives between the rounded corners*
20,1,$1+$1,$2,$3,$4,$5,0*
20,1,$1+$1,$4,$5,$6,$7,0*
20,1,$1+$1,$6,$7,$8,$9,0*
20,1,$1+$1,$8,$9,$2,$3,0*%
G04 Aperture macros list end*
%ADD10RoundRect,0.140000X-0.170000X0.140000X-0.170000X-0.140000X0.170000X-0.140000X0.170000X0.140000X0*%
%ADD11RoundRect,0.140000X0.170000X-0.140000X0.170000X0.140000X-0.170000X0.140000X-0.170000X-0.140000X0*%
%ADD12RoundRect,0.135000X-0.135000X-0.185000X0.135000X-0.185000X0.135000X0.185000X-0.135000X0.185000X0*%
%ADD13R,0.812800X0.304800*%
%ADD14RoundRect,0.140000X-0.140000X-0.170000X0.140000X-0.170000X0.140000X0.170000X-0.140000X0.170000X0*%
%ADD15RoundRect,0.135000X0.135000X0.185000X-0.135000X0.185000X-0.135000X-0.185000X0.135000X-0.185000X0*%
%ADD16RoundRect,0.140000X0.140000X0.170000X-0.140000X0.170000X-0.140000X-0.170000X0.140000X-0.170000X0*%
%ADD17RoundRect,0.135000X0.185000X-0.135000X0.185000X0.135000X-0.185000X0.135000X-0.185000X-0.135000X0*%
%ADD18R,4.191000X1.270000*%
%ADD19R,4.800600X1.346200*%
%ADD20RoundRect,0.147500X-0.147500X-0.172500X0.147500X-0.172500X0.147500X0.172500X-0.147500X0.172500X0*%
%ADD21R,0.800000X0.300000*%
%ADD22R,0.650000X1.250000*%
%ADD23R,0.750000X0.600000*%
%ADD24RoundRect,0.250000X-0.315000X-0.315000X0.315000X-0.315000X0.315000X0.315000X-0.315000X0.315000X0*%
%ADD25RoundRect,0.050000X-0.375000X-0.050000X0.375000X-0.050000X0.375000X0.050000X-0.375000X0.050000X0*%
%ADD26RoundRect,0.050000X-0.050000X-0.375000X0.050000X-0.375000X0.050000X0.375000X-0.050000X0.375000X0*%
%ADD27RoundRect,0.150000X0.150000X-0.512500X0.150000X0.512500X-0.150000X0.512500X-0.150000X-0.512500X0*%
%ADD28RoundRect,0.147500X0.147500X0.172500X-0.147500X0.172500X-0.147500X-0.172500X0.147500X-0.172500X0*%
%ADD29RoundRect,0.147500X-0.172500X0.147500X-0.172500X-0.147500X0.172500X-0.147500X0.172500X0.147500X0*%
%ADD30RoundRect,0.135000X-0.185000X0.135000X-0.185000X-0.135000X0.185000X-0.135000X0.185000X0.135000X0*%
%ADD31RoundRect,0.150000X-0.512500X-0.150000X0.512500X-0.150000X0.512500X0.150000X-0.512500X0.150000X0*%
G04 APERTURE END LIST*
D10*
X141225000Y-152690000D03*
X141225000Y-153650000D03*
D11*
X139475000Y-158305000D03*
X139475000Y-157345000D03*
X136825000Y-163980000D03*
X136825000Y-163020000D03*
D12*
X150515000Y-153625000D03*
X151535000Y-153625000D03*
D11*
X137075000Y-154854755D03*
X137075000Y-153894755D03*
D13*
X145775000Y-165674998D03*
X145775000Y-165024999D03*
X145775000Y-164375000D03*
X144475002Y-164375000D03*
X144475002Y-165024999D03*
X144475002Y-165674998D03*
D14*
X134690000Y-160300000D03*
X135650000Y-160300000D03*
X150775000Y-159175000D03*
X151735000Y-159175000D03*
D15*
X139225000Y-154200000D03*
X138205000Y-154200000D03*
D16*
X142880000Y-160475000D03*
X141920000Y-160475000D03*
X141780000Y-158775000D03*
X140820000Y-158775000D03*
D17*
X151825000Y-155995000D03*
X151825000Y-154975000D03*
D14*
X132815000Y-162275000D03*
X133775000Y-162275000D03*
D18*
X152622572Y-168850000D03*
D19*
X152422527Y-166024999D03*
X152422527Y-171674998D03*
D10*
X140875000Y-159775000D03*
X140875000Y-160735000D03*
X145725000Y-161750000D03*
X145725000Y-162710000D03*
D14*
X134795000Y-153775000D03*
X135755000Y-153775000D03*
D11*
X140550000Y-164100000D03*
X140550000Y-163140000D03*
D16*
X147255000Y-167150000D03*
X146295000Y-167150000D03*
D12*
X138290000Y-165150000D03*
X139310000Y-165150000D03*
D20*
X138315000Y-168850000D03*
X139285000Y-168850000D03*
D11*
X147250000Y-165675000D03*
X147250000Y-164715000D03*
D10*
X144575000Y-161750000D03*
X144575000Y-162710000D03*
D16*
X139175000Y-155450000D03*
X138215000Y-155450000D03*
D21*
X142750000Y-167675000D03*
X142750000Y-167175000D03*
X142750000Y-166675000D03*
X142750000Y-166175000D03*
X140850000Y-166175000D03*
X140850000Y-166675000D03*
X140850000Y-167175000D03*
X140850000Y-167675000D03*
D22*
X141800000Y-166925000D03*
D23*
X138845000Y-151225000D03*
X138845000Y-152875000D03*
X139975000Y-152875000D03*
X139975000Y-151225000D03*
D11*
X138300000Y-164100000D03*
X138300000Y-163140000D03*
D24*
X144575000Y-154275000D03*
X144575000Y-155675000D03*
X144575000Y-157075000D03*
X145975000Y-154275000D03*
X145975000Y-155675000D03*
X145975000Y-157075000D03*
X147375000Y-154275000D03*
X147375000Y-155675000D03*
X147375000Y-157075000D03*
D25*
X143025000Y-153475000D03*
X143025000Y-153875000D03*
X143025000Y-154275000D03*
X143025000Y-154675000D03*
X143025000Y-155075000D03*
X143025000Y-155475000D03*
X143025000Y-155875000D03*
X143025000Y-156275000D03*
X143025000Y-156675000D03*
X143025000Y-157075000D03*
X143025000Y-157475000D03*
X143025000Y-157875000D03*
D26*
X143775000Y-158625000D03*
X144175000Y-158625000D03*
X144575000Y-158625000D03*
X144975000Y-158625000D03*
X145375000Y-158625000D03*
X145775000Y-158625000D03*
X146175000Y-158625000D03*
X146575000Y-158625000D03*
X146975000Y-158625000D03*
X147375000Y-158625000D03*
X147775000Y-158625000D03*
X148175000Y-158625000D03*
D25*
X148925000Y-157875000D03*
X148925000Y-157475000D03*
X148925000Y-157075000D03*
X148925000Y-156675000D03*
X148925000Y-156275000D03*
X148925000Y-155875000D03*
X148925000Y-155475000D03*
X148925000Y-155075000D03*
X148925000Y-154675000D03*
X148925000Y-154275000D03*
X148925000Y-153875000D03*
X148925000Y-153475000D03*
D26*
X148175000Y-152725000D03*
X147775000Y-152725000D03*
X147375000Y-152725000D03*
X146975000Y-152725000D03*
X146575000Y-152725000D03*
X146175000Y-152725000D03*
X145775000Y-152725000D03*
X145375000Y-152725000D03*
X144975000Y-152725000D03*
X144575000Y-152725000D03*
X144175000Y-152725000D03*
X143775000Y-152725000D03*
D27*
X134800000Y-158679755D03*
X135750000Y-158679755D03*
X136700000Y-158679755D03*
X136700000Y-156404755D03*
X134800000Y-156404755D03*
D28*
X145085000Y-167150000D03*
X144115000Y-167150000D03*
D11*
X139450000Y-164100000D03*
X139450000Y-163140000D03*
D29*
X138325000Y-166240000D03*
X138325000Y-167210000D03*
D30*
X139475000Y-159325000D03*
X139475000Y-160345000D03*
D14*
X141390000Y-168850000D03*
X142350000Y-168850000D03*
D31*
X132887500Y-163975000D03*
X132887500Y-164925000D03*
X132887500Y-165875000D03*
X135162500Y-165875000D03*
X135162500Y-163975000D03*
M02*
