G04 #@! TF.GenerationSoftware,KiCad,Pcbnew,10.0.4*
G04 #@! TF.CreationDate,2026-08-11T20:57:55+10:00*
G04 #@! TF.ProjectId,DW1000,44573130-3030-42e6-9b69-6361645f7063,rev?*
G04 #@! TF.SameCoordinates,Original*
G04 #@! TF.FileFunction,Paste,Bot*
G04 #@! TF.FilePolarity,Positive*
%FSLAX46Y46*%
G04 Gerber Fmt 4.6, Leading zero omitted, Abs format (unit mm)*
G04 Created by KiCad (PCBNEW 10.0.4) date 2026-08-11 20:57:55*
%MOMM*%
%LPD*%
G01*
G04 APERTURE LIST*
G04 Aperture macros list*
%AMRoundRect*
0 Rectangle with rounded corners*
0 $1 Rounding radius*
0 $2 $3 $4 $5 $6 $7 $8 $9 X,Y pos of 4 corners*
0 Add a 4 corners polygon primitive as box body*
4,1,4,$2,$3,$4,$5,$6,$7,$8,$9,$2,$3,0*
0 Add four circle primitives for the rounded corners*
1,1,$1+$1,$2,$3*
1,1,$1+$1,$4,$5*
1,1,$1+$1,$6,$7*
1,1,$1+$1,$8,$9*
0 Add four rect primitives between the rounded corners*
20,1,$1+$1,$2,$3,$4,$5,0*
20,1,$1+$1,$4,$5,$6,$7,0*
20,1,$1+$1,$6,$7,$8,$9,0*
20,1,$1+$1,$8,$9,$2,$3,0*%
G04 Aperture macros list end*
%ADD10RoundRect,0.140000X0.170000X-0.140000X0.170000X0.140000X-0.170000X0.140000X-0.170000X-0.140000X0*%
%ADD11RoundRect,0.140000X-0.170000X0.140000X-0.170000X-0.140000X0.170000X-0.140000X0.170000X0.140000X0*%
%ADD12RoundRect,0.140000X0.140000X0.170000X-0.140000X0.170000X-0.140000X-0.170000X0.140000X-0.170000X0*%
%ADD13RoundRect,0.140000X-0.140000X-0.170000X0.140000X-0.170000X0.140000X0.170000X-0.140000X0.170000X0*%
%ADD14RoundRect,0.135000X-0.185000X0.135000X-0.185000X-0.135000X0.185000X-0.135000X0.185000X0.135000X0*%
G04 APERTURE END LIST*
D10*
X148550000Y-162825000D03*
X148550000Y-161865000D03*
X143275000Y-151455000D03*
X143275000Y-150495000D03*
D11*
X152275000Y-157795000D03*
X152275000Y-158755000D03*
D10*
X138600000Y-158300000D03*
X138600000Y-157340000D03*
D12*
X141605000Y-155100000D03*
X140645000Y-155100000D03*
D13*
X146325000Y-150625000D03*
X147285000Y-150625000D03*
D11*
X150625000Y-159875000D03*
X150625000Y-160835000D03*
X142800000Y-158740000D03*
X142800000Y-159700000D03*
D12*
X145325000Y-150625000D03*
X144365000Y-150625000D03*
D10*
X142275000Y-151455000D03*
X142275000Y-150495000D03*
D13*
X139595000Y-156750000D03*
X140555000Y-156750000D03*
D11*
X148525000Y-159875000D03*
X148525000Y-160835000D03*
X149575000Y-159875000D03*
X149575000Y-160835000D03*
D13*
X151165000Y-156775000D03*
X152125000Y-156775000D03*
X146550000Y-161800000D03*
X147510000Y-161800000D03*
D10*
X149625000Y-162825000D03*
X149625000Y-161865000D03*
D11*
X151225000Y-157795000D03*
X151225000Y-158755000D03*
D13*
X151225000Y-155525000D03*
X152185000Y-155525000D03*
D14*
X139575000Y-154705000D03*
X139575000Y-155725000D03*
D13*
X146540000Y-160690000D03*
X147500000Y-160690000D03*
M02*
